<?xml version="1.0" encoding="UTF-8"?>
<svg width="135px" height="40px" viewBox="0 0 135 40" version="1.1" xmlns="http://www.w3.org/2000/svg" xmlns:xlink="http://www.w3.org/1999/xlink">
    <!-- Generator: Sketch 51.2 (57519) - http://www.bohemiancoding.com/sketch -->
    <title>badge iOS</title>
    <desc>Created with Sketch.</desc>
    <defs>
        <polygon id="path-1" points="0.06 0.04 135 0.04 135 40 0.06 40"></polygon>
    </defs>
    <g id="badge-iOS" stroke="none" stroke-width="1" fill="none" fill-rule="evenodd">
        <g id="Group-3">
            <mask id="mask-2" fill="white">
                <use xlink:href="#path-1"></use>
            </mask>
            <g id="Clip-2"></g>
            <path d="M130,0.5 L5,0.5 C2.51514237,0.5 0.5,2.51514237 0.5,5 L0.5,35 C0.5,37.4854968 2.51478151,39.5 5,39.5 L130,39.5 C132.485858,39.5 134.5,37.4858576 134.5,35 L134.5,5 C134.5,2.51478151 132.485497,0.5 130,0.5 Z" id="Fill-1" stroke="#FFFFFF" fill="#0A0B09" mask="url(#mask-2)"></path>
        </g>
        <path d="M32.54,19.4 C32.573,17.706 33.461,16.144 34.9,15.25 C33.982,13.939 32.499,13.138 30.9,13.09 C29.22,12.91 27.59,14.09 26.74,14.09 C25.89,14.09 24.55,13.09 23.13,13.09 C21.264,13.153 19.568,14.189 18.66,15.82 C16.73,19.17 18.17,24.09 20.02,26.82 C20.95,28.15 22.02,29.63 23.45,29.57 C24.88,29.51 25.36,28.69 27.03,28.69 C28.7,28.69 29.17,29.57 30.62,29.54 C32.07,29.51 33.05,28.21 33.94,26.87 C34.606,25.926 35.119,24.884 35.46,23.78 C33.698,23.036 32.549,21.312 32.54,19.4" id="Fill-4" fill="#FFFFFE"></path>
        <path d="M29.81,11.31 C30.62,10.335 31.018,9.083 30.92,7.82 C29.681,7.954 28.536,8.546 27.71,9.48 C26.9,10.405 26.49,11.613 26.57,12.84 C27.828,12.854 29.022,12.29 29.81,11.31" id="Fill-5" fill="#FFFFFE"></path>
        <path d="M45.83,24.69 L49.58,24.69 L47.73,19.24 L47.68,19.24 L45.83,24.69 Z M50.07,26.24 L45.34,26.24 L44.2,29.59 L42.2,29.59 L46.68,17.17 L48.76,17.17 L53.24,29.59 L51.24,29.59 L50.07,26.24 Z" id="Fill-6" fill="#FFFFFE"></path>
        <path d="M61.02,25.07 C61.02,23.24 60.07,22.07 58.63,22.07 C57.19,22.07 56.26,23.3 56.26,25.07 C56.26,26.84 57.26,28.07 58.64,28.07 C60.02,28.07 61,26.92 61,25.07 L61.02,25.07 Z M62.93,25.07 C62.93,27.88 61.42,29.69 59.15,29.69 C57.974,29.751 56.866,29.133 56.3,28.1 L56.3,32.58 L54.4,32.58 L54.4,20.58 L56.2,20.58 L56.2,22 C56.792,20.977 57.898,20.362 59.08,20.4 C61.42,20.44 62.93,22.26 62.93,25.07 Z" id="Fill-7" fill="#FFFFFE"></path>
        <path d="M70.98,25.07 C70.98,23.24 70.03,22.07 68.59,22.07 C67.15,22.07 66.22,23.3 66.22,25.07 C66.22,26.84 67.22,28.07 68.6,28.07 C69.98,28.07 71,26.92 71,25.07 L70.98,25.07 Z M72.89,25.07 C72.89,27.88 71.38,29.69 69.11,29.69 C67.936,29.753 66.829,29.139 66.26,28.11 L66.26,32.59 L64.37,32.59 L64.37,20.59 L66.17,20.59 L66.17,22 C66.762,20.977 67.869,20.362 69.05,20.4 C71.38,20.44 72.89,22.26 72.89,25.07 Z" id="Fill-8" fill="#FFFFFE"></path>
        <path d="M79.48,26.13 C79.62,27.36 80.81,28.13 82.48,28.13 C84.15,28.13 85.17,27.32 85.17,26.21 C85.17,25.1 84.49,24.67 82.88,24.27 L81.269,23.88 C78.99,23.33 77.93,22.26 77.93,20.53 C77.93,18.39 79.8,16.92 82.45,16.92 C85.1,16.92 86.87,18.39 86.93,20.53 L85,20.53 C84.89,19.29 83.86,18.53 82.37,18.53 C80.88,18.53 79.85,19.29 79.85,20.39 C79.85,21.27 80.5,21.78 82.1,22.18 L83.47,22.52 C86.02,23.12 87.08,24.15 87.08,25.96 C87.08,28.28 85.23,29.74 82.29,29.74 C79.54,29.74 77.68,28.32 77.56,26.07 L79.48,26.13" id="Fill-9" fill="#FFFFFE"></path>
        <path d="M91.12,18.4 L91.12,20.54 L92.84,20.54 L92.84,22 L91.12,22 L91.12,27 C91.12,27.78 91.46,28.14 92.22,28.14 C92.423,28.15 92.627,28.15 92.83,28.14 L92.83,29.6 C92.5,29.663 92.165,29.693 91.83,29.69 C90,29.69 89.28,29 89.28,27.25 L89.28,22 L87.93,22 L87.93,20.54 L89.25,20.54 L89.25,18.4 L91.12,18.4" id="Fill-10" fill="#FFFFFE"></path>
        <path d="M100.54,25.07 C100.54,23.07 99.64,21.96 98.14,21.96 C96.64,21.96 95.74,23.12 95.74,25.07 C95.74,27.02 96.63,28.18 98.14,28.18 C99.65,28.18 100.53,27 100.53,25.07 L100.54,25.07 Z M93.84,25.07 C93.84,22.22 95.519,20.43 98.13,20.43 C100.74,20.43 102.42,22.22 102.42,25.07 C102.42,27.92 100.76,29.71 98.13,29.71 C95.5,29.71 93.84,27.92 93.84,25.07 Z" id="Fill-11" fill="#FFFFFE"></path>
        <path d="M104,20.54 L105.77,20.54 L105.77,22.08 C106.016,21.086 106.927,20.4 107.95,20.44 C108.165,20.44 108.38,20.463 108.59,20.51 L108.59,22.25 C108.321,22.169 108.041,22.132 107.76,22.14 C106.729,22.095 105.855,22.895 105.81,23.926 C105.806,24.024 105.809,24.122 105.82,24.22 L105.82,29.59 L104,29.59 L104,20.54" id="Fill-12" fill="#FFFFFE"></path>
        <path d="M110.87,24.231 L115.4,24.231 C115.467,23.028 114.546,21.999 113.344,21.933 C113.289,21.93 113.234,21.929 113.18,21.93 C111.915,21.919 110.881,22.935 110.87,24.2 C110.87,24.21 110.87,24.22 110.87,24.231 Z M117.15,26.93 C116.9,28.57 115.3,29.7 113.25,29.7 C110.62,29.7 108.98,27.94 108.98,25.1 C108.98,22.26 110.62,20.42 113.17,20.42 C115.72,20.42 117.25,22.14 117.25,24.89 L117.25,25.53 L110.86,25.53 L110.86,25.64 C110.749,26.939 111.711,28.082 113.01,28.193 C113.106,28.201 113.203,28.204 113.3,28.2 C114.204,28.302 115.063,27.779 115.39,26.93 L117.15,26.93 Z" id="Fill-13" fill="#FFFFFE"></path>
        <path d="M44.37,12.95 L45.5,12.95 C46.535,13.027 47.438,12.251 47.515,11.215 C47.525,11.077 47.52,10.938 47.5,10.8 C47.641,9.771 46.921,8.823 45.893,8.682 C45.762,8.665 45.631,8.661 45.5,8.67 L44.37,8.67 L44.37,12.95 Z M45.6,7.83 C47.054,7.722 48.32,8.813 48.428,10.267 C48.442,10.455 48.436,10.644 48.41,10.83 C48.41,12.74 47.41,13.83 45.6,13.83 L43.44,13.83 L43.44,7.83 L45.6,7.83 Z" id="Fill-14" fill="#FFFFFE"></path>
        <path d="M52.78,11.54 C52.78,10.54 52.34,9.99 51.57,9.99 C50.8,9.99 50.36,10.56 50.36,11.54 C50.36,12.52 50.79,13.09 51.57,13.09 C52.35,13.09 52.78,12.52 52.78,11.54 Z M49.45,11.54 C49.37,10.366 50.255,9.35 51.429,9.269 C52.602,9.188 53.62,10.075 53.7,11.248 C53.707,11.345 53.707,11.443 53.7,11.54 C53.781,12.713 52.894,13.73 51.721,13.811 C50.547,13.892 49.531,13.005 49.45,11.832 C49.443,11.734 49.443,11.637 49.45,11.54 Z" id="Fill-15" fill="#FFFFFE"></path>
        <polyline id="Fill-16" fill="#FFFFFE" points="59.34 13.79 58.42 13.79 57.49 10.47 57.42 10.47 56.49 13.79 55.58 13.79 54.34 9.29 55.24 9.29 56 12.73 56.07 12.73 57 9.29 57.85 9.29 58.78 12.73 58.85 12.73 59.65 9.29 60.54 9.29 59.34 13.79"></polyline>
        <path d="M61.62,9.29 L62.48,9.29 L62.48,10 L62.55,10 C62.782,9.476 63.319,9.155 63.89,9.2 C64.694,9.136 65.397,9.736 65.461,10.54 C65.47,10.65 65.466,10.761 65.45,10.87 L65.45,13.79 L64.56,13.79 L64.56,11.1 C64.56,10.38 64.25,10.02 63.56,10.02 C63.01,9.97 62.523,10.375 62.474,10.925 C62.467,11.003 62.469,11.083 62.48,11.16 L62.48,13.79 L61.59,13.79 L61.62,9.29" id="Fill-17" fill="#FFFFFE"></path>
        <polygon id="Fill-18" fill="#FFFFFE" points="66.86 13.79 67.75 13.79 67.75 7.53 66.86 7.53"></polygon>
        <path d="M72.33,11.54 C72.33,10.54 71.89,9.99 71.12,9.99 C70.35,9.99 69.91,10.56 69.91,11.54 C69.91,12.52 70.34,13.09 71.12,13.09 C71.9,13.09 72.32,12.52 72.32,11.54 L72.33,11.54 Z M69,11.54 C68.92,10.366 69.806,9.35 70.979,9.269 C72.152,9.188 73.17,10.075 73.25,11.248 C73.257,11.345 73.257,11.443 73.25,11.54 C73.33,12.713 72.444,13.73 71.271,13.811 C70.098,13.892 69.08,13.005 69,11.832 C68.993,11.734 68.993,11.637 69,11.54 Z" id="Fill-19" fill="#FFFFFE"></path>
        <path d="M77.06,12.14 L77.06,11.76 L75.96,11.83 C75.34,11.83 75.06,12.08 75.06,12.48 C75.06,12.88 75.41,13.12 75.89,13.12 C76.472,13.188 76.998,12.771 77.065,12.19 C77.067,12.173 77.069,12.157 77.07,12.14 L77.06,12.14 Z M74.17,12.52 C74.17,11.71 74.77,11.24 75.84,11.18 L77.06,11.11 L77.06,10.72 C77.06,10.24 76.75,9.98 76.14,9.98 C75.53,9.98 75.3,10.16 75.2,10.48 L74.34,10.48 C74.43,9.71 75.16,9.21 76.18,9.21 C77.2,9.21 78,9.77 78,10.72 L78,13.8 L77.14,13.8 L77.14,13.17 L77,13.17 C76.71,13.632 76.194,13.903 75.65,13.88 C74.901,13.946 74.241,13.394 74.176,12.646 C74.172,12.604 74.17,12.562 74.17,12.52 Z" id="Fill-20" fill="#FFFFFE"></path>
        <path d="M80.04,11.54 C80.04,12.54 80.49,13.07 81.24,13.07 C81.99,13.07 82.45,12.49 82.45,11.54 C82.45,10.59 82,10 81.24,10 C80.48,10 80,10.59 80,11.54 L80.04,11.54 Z M79.12,11.54 C79.12,10.12 79.85,9.22 80.99,9.22 C81.564,9.193 82.103,9.501 82.37,10.01 L82.44,10.01 L82.44,7.53 L83.33,7.53 L83.33,13.79 L82.48,13.79 L82.48,13.08 L82.4,13.08 C82.113,13.585 81.57,13.89 80.99,13.87 C79.84,13.87 79.12,13 79.12,11.54 Z" id="Fill-21" fill="#FFFFFE"></path>
        <path d="M87.92,11.54 C87.92,12.54 88.37,13.07 89.12,13.07 C89.87,13.07 90.33,12.49 90.33,11.54 C90.33,10.59 89.87,10 89.12,10 C88.37,10 87.92,10.59 87.92,11.54 Z M87,11.54 C87,10.12 87.73,9.22 88.87,9.22 C89.444,9.193 89.982,9.501 90.25,10.01 L90.32,10.01 L90.32,7.53 L91.21,7.53 L91.21,13.79 L90.36,13.79 L90.36,13.08 L90.29,13.08 C90.004,13.585 89.46,13.89 88.88,13.87 C87.72,13.87 87,13 87,11.54 Z" id="Fill-22" fill="#FFFFFE"></path>
        <path d="M92.68,13.83 L93.571,13.83 L93.571,9.33 L92.68,9.33 L92.68,13.83 Z M92.55,8 C92.528,7.681 92.77,7.403 93.089,7.381 C93.408,7.359 93.686,7.601 93.707,7.92 C93.729,8.24 93.488,8.517 93.169,8.539 C93.156,8.54 93.143,8.54 93.13,8.54 C92.827,8.557 92.567,8.324 92.551,8.021 C92.551,8.014 92.55,8.007 92.55,8 Z" id="Fill-23" fill="#FFFFFE"></path>
    </g>
</svg>