<svg xmlns="http://www.w3.org/2000/svg" viewBox="0 0 382.8 181.3"><defs><style>.cls-1{fill:#fff;}</style></defs><g id="Layer_2" data-name="Layer 2"><g id="Layer_1-2" data-name="Layer 1"><path class="cls-1" d="M7.3,15.7H8.8a2.9,2.9,0,0,0,2.6-1.2l9-12a3.9,3.9,0,0,1,1.4-1.2A4.8,4.8,0,0,1,23.6,1H30L18.7,15.6a7,7,0,0,1-2.3,2,5.1,5.1,0,0,1,1.6.9,8.9,8.9,0,0,1,1.3,1.4L30.9,36.5H23.3c-.3-.1-.6-.1-.8-.3a.9.9,0,0,1-.6-.4l-.5-.6L12.3,22.3a3.1,3.1,0,0,0-1.1-.9,4.2,4.2,0,0,0-1.8-.3H7.3V36.5H0V1H7.3Z"/><path class="cls-1" d="M42.2,10.9a13.6,13.6,0,0,1,5.1.9,11.1,11.1,0,0,1,4,2.6,12,12,0,0,1,2.6,4,15.9,15.9,0,0,1,.9,5.5,15.3,15.3,0,0,1-.9,5.4,12.5,12.5,0,0,1-2.6,4.1,11.1,11.1,0,0,1-4,2.6,13.6,13.6,0,0,1-5.1.9A14.2,14.2,0,0,1,37,36a11.1,11.1,0,0,1-4-2.6,12.5,12.5,0,0,1-2.6-4.1,15.3,15.3,0,0,1-.9-5.4,15.9,15.9,0,0,1,.9-5.5,12,12,0,0,1,2.6-4,11.1,11.1,0,0,1,4-2.6A14.2,14.2,0,0,1,42.2,10.9Zm0,20.9a5.1,5.1,0,0,0,4.3-2,10.5,10.5,0,0,0,1.4-5.9A10.5,10.5,0,0,0,46.5,18a4.9,4.9,0,0,0-4.3-2,4.9,4.9,0,0,0-4.4,2,10.5,10.5,0,0,0-1.4,5.9,10.5,10.5,0,0,0,1.4,5.9A5.2,5.2,0,0,0,42.2,31.8Z"/><path class="cls-1" d="M64.8,14.2l1.6-1.3a10.8,10.8,0,0,1,1.8-1.1l1.9-.7,2.4-.2a8.6,8.6,0,0,1,3.6.7,6.8,6.8,0,0,1,2.7,2,8.6,8.6,0,0,1,1.6,3,12.3,12.3,0,0,1,.6,3.9v16H74.2v-16a5.4,5.4,0,0,0-.9-3.3,3.6,3.6,0,0,0-2.9-1.1,6,6,0,0,0-2.7.6,8.9,8.9,0,0,0-2.4,1.7V36.5H58.6V11.3h4.1a1.6,1.6,0,0,1,1.7,1.2Z"/><path class="cls-1" d="M101.5,16.5l-.5.6-.8.2a1.9,1.9,0,0,1-1-.3L98,16.5,96.6,16a5.8,5.8,0,0,0-1.9-.3,4.2,4.2,0,0,0-2.6.7,2,2,0,0,0-.9,1.8,1.4,1.4,0,0,0,.6,1.2,3,3,0,0,0,1.3.9L95,21l2.3.8,2.2.9a7.6,7.6,0,0,1,1.9,1.2,8,8,0,0,1,1.3,1.9,5.3,5.3,0,0,1,.6,2.6,8.9,8.9,0,0,1-.7,3.4,6.8,6.8,0,0,1-2,2.7,8.9,8.9,0,0,1-3.2,1.8,15.3,15.3,0,0,1-4.5.6l-2.5-.2L87.9,36l-2.1-1L84,33.8l1.6-2.5.7-.7a1.7,1.7,0,0,1,1-.3,2.7,2.7,0,0,1,1.2.3,4.1,4.1,0,0,0,1.1.7l1.5.7a6.9,6.9,0,0,0,2.2.3l1.7-.2,1.1-.6.7-.9a3,3,0,0,0,.2-1,2,2,0,0,0-.6-1.4l-1.3-.9-2-.7-2.2-.7a14.5,14.5,0,0,1-2.2-.9,7.2,7.2,0,0,1-2-1.4,5.8,5.8,0,0,1-1.3-2,6.5,6.5,0,0,1-.6-2.9,8,8,0,0,1,.6-3,11,11,0,0,1,1.9-2.5,8.7,8.7,0,0,1,3-1.7,13.3,13.3,0,0,1,4.2-.6,12.6,12.6,0,0,1,4.9.9,10.6,10.6,0,0,1,3.7,2.3Z"/><path class="cls-1" d="M129.1,11.3V36.5H125a1.6,1.6,0,0,1-1.7-1.2l-.4-1.7-1.6,1.3L119.6,36l-2,.7-2.3.2a8.7,8.7,0,0,1-3.7-.7,7.3,7.3,0,0,1-2.6-2,8.1,8.1,0,0,1-1.7-3,12.3,12.3,0,0,1-.5-3.9v-16h6.7v16a4.8,4.8,0,0,0,1,3.3,3.7,3.7,0,0,0,2.9,1.1,5.8,5.8,0,0,0,2.6-.6,9.6,9.6,0,0,0,2.4-1.7V11.3Z"/><path class="cls-1" d="M141,0V36.5h-6.7V0Z"/><path class="cls-1" d="M154.9,36.9a8.5,8.5,0,0,1-3-.5,5.9,5.9,0,0,1-2.3-1.4,6.5,6.5,0,0,1-1.3-2.3,7.3,7.3,0,0,1-.5-3V16.1h-2.4a1.6,1.6,0,0,1-.9-.3,1.2,1.2,0,0,1-.4-1V12.1l4.1-.7,1.3-6.6A1.4,1.4,0,0,1,151,3.7h3.5v7.7h6.6v4.7h-6.6V29.3A3.1,3.1,0,0,0,155,31a2,2,0,0,0,1.5.6h.8l.6-.3.4-.2h1l.4.4,2,3.3a8.8,8.8,0,0,1-3.2,1.6A10.9,10.9,0,0,1,154.9,36.9Z"/><path class="cls-1" d="M163.6,14.8a13.3,13.3,0,0,1,4.9-3,16.1,16.1,0,0,1,5.8-1,10.7,10.7,0,0,1,4.1.7,9,9,0,0,1,3,2.1,9.6,9.6,0,0,1,1.9,3.1,12.5,12.5,0,0,1,.6,4V36.5h-3.1a2.6,2.6,0,0,1-1.4-.3,1.7,1.7,0,0,1-.8-1.1l-.6-1.6c-.6.6-1.2,1-1.8,1.5l-1.9,1-2,.7-2.4.2a10.1,10.1,0,0,1-3.1-.4,5.9,5.9,0,0,1-2.3-1.4,5.6,5.6,0,0,1-1.6-2.1,9.4,9.4,0,0,1-.5-3,5.8,5.8,0,0,1,.7-2.8,7.1,7.1,0,0,1,2.4-2.5,15.2,15.2,0,0,1,4.6-1.9,35.3,35.3,0,0,1,7.2-.9V20.7a4.9,4.9,0,0,0-1-3.5,3.3,3.3,0,0,0-2.8-1.1,8.3,8.3,0,0,0-2.4.3l-1.6.7-1.3.7a3.2,3.2,0,0,1-1.4.3,2.1,2.1,0,0,1-1.2-.3,3.4,3.4,0,0,1-.8-.9ZM177.3,26a22.7,22.7,0,0,0-4.1.4,11.5,11.5,0,0,0-2.6.8,2.9,2.9,0,0,0-1.3,1.1,2.3,2.3,0,0,0-.4,1.4,2.2,2.2,0,0,0,.8,2,3.7,3.7,0,0,0,2.3.6,6.5,6.5,0,0,0,2.9-.6,9.4,9.4,0,0,0,2.4-1.8Z"/><path class="cls-1" d="M204.4,16.5l-.5.6-.8.2a1.9,1.9,0,0,1-1-.3l-1.2-.5-1.4-.5a5.8,5.8,0,0,0-1.9-.3,4,4,0,0,0-2.6.7,2,2,0,0,0-.9,1.8,1.7,1.7,0,0,0,.5,1.2,3.4,3.4,0,0,0,1.4.9l1.9.7,2.2.8a10.9,10.9,0,0,1,2.3.9,7.6,7.6,0,0,1,1.9,1.2,8,8,0,0,1,1.3,1.9,5.3,5.3,0,0,1,.5,2.6,9,9,0,0,1-.6,3.4,6.8,6.8,0,0,1-2,2.7,9.9,9.9,0,0,1-3.2,1.8,15.3,15.3,0,0,1-4.5.6l-2.5-.2-2.5-.7a13.6,13.6,0,0,1-2.1-1l-1.8-1.2,1.6-2.5a2.3,2.3,0,0,1,.7-.7,1.5,1.5,0,0,1,1-.3,2,2,0,0,1,1.1.3l1.2.7,1.5.7a6.9,6.9,0,0,0,2.2.3l1.7-.2,1.1-.6.7-.9a3,3,0,0,0,.2-1,2,2,0,0,0-.6-1.4l-1.3-.9-2-.7-2.2-.7a14.5,14.5,0,0,1-2.2-.9,7.2,7.2,0,0,1-2-1.4,7.8,7.8,0,0,1-1.4-2,8.4,8.4,0,0,1-.5-2.9,8,8,0,0,1,.6-3,8.2,8.2,0,0,1,4.9-4.2,13.3,13.3,0,0,1,4.2-.6,12.6,12.6,0,0,1,4.9.9,10.6,10.6,0,0,1,3.7,2.3Z"/><path class="cls-1" d="M217.6,4.1a4.1,4.1,0,0,1-.3,1.6,3.8,3.8,0,0,1-.9,1.3,3.4,3.4,0,0,1-1.4.9,4.4,4.4,0,0,1-3.2,0,3.8,3.8,0,0,1-1.3-.9,3.8,3.8,0,0,1-.9-1.3,4.1,4.1,0,0,1-.3-1.6,4.1,4.1,0,0,1,.3-1.6,3.8,3.8,0,0,1,.9-1.3,3.8,3.8,0,0,1,1.3-.9,4.4,4.4,0,0,1,3.2,0,3.4,3.4,0,0,1,1.4.9,3.8,3.8,0,0,1,.9,1.3A4.1,4.1,0,0,1,217.6,4.1Zm-.8,7.2V36.5h-6.7V11.3Z"/><path class="cls-1" d="M266,18.7a18.8,18.8,0,0,1-1.3,7.2,15.7,15.7,0,0,1-3.7,5.6,17,17,0,0,1-5.7,3.7,20,20,0,0,1-7.5,1.3H234.2V1h13.6a20,20,0,0,1,7.5,1.3A17,17,0,0,1,261,6a17.6,17.6,0,0,1,3.7,5.6A18.7,18.7,0,0,1,266,18.7Zm-7.5,0a19.5,19.5,0,0,0-.7-5,9.1,9.1,0,0,0-2.2-3.7,7.8,7.8,0,0,0-3.3-2.4,10.6,10.6,0,0,0-4.5-.8h-6.2v24h6.2a10.6,10.6,0,0,0,4.5-.9,8.6,8.6,0,0,0,3.3-2.3,10.3,10.3,0,0,0,2.2-3.8A19.6,19.6,0,0,0,258.5,18.7Z"/><path class="cls-1" d="M281.1,10.9a14.6,14.6,0,0,1,5.2.9,11.6,11.6,0,0,1,3.9,2.6,10.7,10.7,0,0,1,2.6,4,15.9,15.9,0,0,1,.9,5.5,15.3,15.3,0,0,1-.9,5.4,11,11,0,0,1-2.6,4.1,11.6,11.6,0,0,1-3.9,2.6,15.5,15.5,0,0,1-10.4,0,11.1,11.1,0,0,1-4-2.6,12.5,12.5,0,0,1-2.6-4.1,15.3,15.3,0,0,1-.9-5.4,15.9,15.9,0,0,1,.9-5.5,12,12,0,0,1,2.6-4,11.1,11.1,0,0,1,4-2.6A14.6,14.6,0,0,1,281.1,10.9Zm0,20.9a5.1,5.1,0,0,0,4.3-2,10.5,10.5,0,0,0,1.4-5.9,10.5,10.5,0,0,0-1.4-5.9,4.9,4.9,0,0,0-4.3-2,4.9,4.9,0,0,0-4.4,2,10.5,10.5,0,0,0-1.4,5.9,10.5,10.5,0,0,0,1.4,5.9A5.2,5.2,0,0,0,281.1,31.8Z"/><path class="cls-1" d="M304.2,0V20.7h1.2a1.6,1.6,0,0,0,1-.2,1.9,1.9,0,0,0,.7-.6l5.6-7.5.9-.8a2.9,2.9,0,0,1,1.4-.3h6.1l-7.2,9.2a6.8,6.8,0,0,1-2,1.8l1,.9a10.5,10.5,0,0,1,.8,1.1l7.8,12.2h-6.1l-1.3-.2a1.8,1.8,0,0,1-.9-1l-5.7-9.2a3,3,0,0,0-.7-.8l-1.1-.2h-1.5V36.5h-6.7V0Z"/><path class="cls-1" d="M332.4,36.9a9.4,9.4,0,0,1-3-.5,5.9,5.9,0,0,1-2.3-1.4,6.5,6.5,0,0,1-1.3-2.3,9.4,9.4,0,0,1-.5-3V16.1h-2.4l-.9-.3a1.5,1.5,0,0,1-.4-1V12.1l4.1-.7L327,4.8a1.4,1.4,0,0,1,1.5-1.1h3.6v7.7h6.5v4.7h-6.5V29.3a2.5,2.5,0,0,0,.5,1.7,1.7,1.7,0,0,0,1.4.6h.8l.6-.3.5-.2h.9l.4.4,2,3.3a9.2,9.2,0,0,1-3.1,1.6A11.5,11.5,0,0,1,332.4,36.9Z"/><path class="cls-1" d="M346.8,24.9c.3,2.4.9,4.1,2.1,5.2a6.8,6.8,0,0,0,6.8,1.3,7.5,7.5,0,0,0,1.8-.7l1.4-.7a1.9,1.9,0,0,1,1.2-.4,1.5,1.5,0,0,1,1.3.6l1.9,2.5a9.1,9.1,0,0,1-2.4,2,8.4,8.4,0,0,1-2.7,1.3,12.8,12.8,0,0,1-2.8.7l-2.7.2a13,13,0,0,1-4.9-.9,9.9,9.9,0,0,1-4-2.6,10.2,10.2,0,0,1-2.7-4.2,15,15,0,0,1-1-5.8,13.3,13.3,0,0,1,.9-4.9,9.8,9.8,0,0,1,2.4-3.9,9.8,9.8,0,0,1,3.9-2.7,11.9,11.9,0,0,1,5.1-1,11.2,11.2,0,0,1,4.5.8,9.9,9.9,0,0,1,3.5,2.2,11.1,11.1,0,0,1,2.3,3.6,14.8,14.8,0,0,1,.8,4.9,4.1,4.1,0,0,1-.1,1.2,1.5,1.5,0,0,1-.2.8.7.7,0,0,1-.5.4H346.8Zm10.7-4a6.9,6.9,0,0,0-.3-2,5.6,5.6,0,0,0-.9-1.7,3.1,3.1,0,0,0-1.6-1.1,4.8,4.8,0,0,0-2.2-.5,5.2,5.2,0,0,0-3.8,1.4,7.1,7.1,0,0,0-1.8,3.9Z"/><path class="cls-1" d="M373.5,15.4a13.8,13.8,0,0,1,2.8-3.4,5.9,5.9,0,0,1,3.7-1.2,5.1,5.1,0,0,1,2.8.8l-.5,5a1.6,1.6,0,0,1-.4.7h-3.1a4.3,4.3,0,0,0-1.7.3,3.5,3.5,0,0,0-1.3.8,4,4,0,0,0-1,1.2,6,6,0,0,0-.8,1.6V36.5h-6.8V11.3h4a2.4,2.4,0,0,1,1.4.3,2.3,2.3,0,0,1,.6,1.3Z"/><path class="cls-1" d="M109.6,64.1H99.3V93.6H91.9V64.1H81.5v-6h28.1Z"/><path class="cls-1" d="M112.2,82.1a8.3,8.3,0,0,0,2,5.2,6,6,0,0,0,4.4,1.6,9,9,0,0,0,2.5-.3l1.7-.8,1.4-.7,1.3-.3a1.4,1.4,0,0,1,1.2.6l2,2.4a22.5,22.5,0,0,1-2.4,2.1,16.6,16.6,0,0,1-2.7,1.3,14,14,0,0,1-2.8.6,13.7,13.7,0,0,1-2.8.2,13.3,13.3,0,0,1-4.9-.9,10.4,10.4,0,0,1-4-2.5,15.1,15.1,0,0,1-2.7-4.2,17.8,17.8,0,0,1-.9-5.9,12.7,12.7,0,0,1,.8-4.8,12.2,12.2,0,0,1,2.4-4,12.2,12.2,0,0,1,9-3.7,12.9,12.9,0,0,1,4.5.8,10.4,10.4,0,0,1,3.5,2.2,9.7,9.7,0,0,1,2.3,3.6,13,13,0,0,1,.9,4.9c0,.5-.1,1-.1,1.3l-.3.8a.8.8,0,0,1-.4.4H112.2Zm10.6-4a6.4,6.4,0,0,0-.3-2,4.6,4.6,0,0,0-.9-1.7,4.4,4.4,0,0,0-1.5-1.2,5.1,5.1,0,0,0-2.2-.4,5,5,0,0,0-3.8,1.3,7.8,7.8,0,0,0-1.8,4Z"/><path class="cls-1" d="M138.9,71.7l1.6-1.5a7.6,7.6,0,0,1,1.9-1.2,10.2,10.2,0,0,1,2.1-.8,8.8,8.8,0,0,1,2.4-.3,7.5,7.5,0,0,1,3.7.9,8.9,8.9,0,0,1,3,2.5,14.2,14.2,0,0,1,1.9,4.1,22.3,22.3,0,0,1,.7,5.5,17.7,17.7,0,0,1-.8,5.2,14,14,0,0,1-2.2,4.2,9.9,9.9,0,0,1-3.4,2.7,9.3,9.3,0,0,1-4.5,1,8.6,8.6,0,0,1-3.4-.6,7.8,7.8,0,0,1-2.6-1.7v10.1h-6.8V68.4h4.2a1.6,1.6,0,0,1,1.7,1.2Zm.4,15.3a5.1,5.1,0,0,0,2.1,1.5,6,6,0,0,0,2.4.5,5.4,5.4,0,0,0,2.2-.5,5.5,5.5,0,0,0,1.7-1.4,6.8,6.8,0,0,0,1.1-2.6,12.8,12.8,0,0,0,.4-3.6,17.9,17.9,0,0,0-.3-3.6,6.7,6.7,0,0,0-1-2.4,3.5,3.5,0,0,0-1.4-1.3,4.1,4.1,0,0,0-1.9-.4,5.6,5.6,0,0,0-3,.7,8.5,8.5,0,0,0-2.3,2Z"/><path class="cls-1" d="M165.4,82.1a8.3,8.3,0,0,0,2,5.2,6,6,0,0,0,4.4,1.6,9,9,0,0,0,2.5-.3l1.7-.8,1.4-.7,1.3-.3a1.4,1.4,0,0,1,1.2.6l2,2.4a22.5,22.5,0,0,1-2.4,2.1,16.6,16.6,0,0,1-2.7,1.3,14,14,0,0,1-2.8.6,13.7,13.7,0,0,1-2.8.2,13.3,13.3,0,0,1-4.9-.9,10.4,10.4,0,0,1-4-2.5,15.1,15.1,0,0,1-2.7-4.2,17.8,17.8,0,0,1-.9-5.9,12.7,12.7,0,0,1,.8-4.8,12.2,12.2,0,0,1,2.4-4,12.2,12.2,0,0,1,9-3.7,12.9,12.9,0,0,1,4.5.8,10.4,10.4,0,0,1,3.5,2.2,9.7,9.7,0,0,1,2.3,3.6,12.9,12.9,0,0,1,.8,4.9v1.3l-.3.8a.8.8,0,0,1-.4.4H165.4Zm10.6-4a6.4,6.4,0,0,0-.3-2,4.6,4.6,0,0,0-.9-1.7,4.4,4.4,0,0,0-1.5-1.2,5.1,5.1,0,0,0-2.2-.4,5,5,0,0,0-3.8,1.3,7.8,7.8,0,0,0-1.8,4Z"/><path class="cls-1" d="M192.1,72.6a10.7,10.7,0,0,1,2.7-3.4,5.6,5.6,0,0,1,3.7-1.3,4.7,4.7,0,0,1,2.8.8l-.4,5c-.1.4-.2.6-.4.7l-.7.2h-2.5l-1.7.2a5,5,0,0,0-1.2.8,4.3,4.3,0,0,0-1.1,1.2c-.3.5-.5,1-.8,1.6V93.6h-6.8V68.4h4c.7,0,1.2.1,1.4.4a2,2,0,0,1,.6,1.3Z"/><path class="cls-1" d="M221.4,74l-.6.6a1,1,0,0,1-.8.3,1.6,1.6,0,0,1-.9-.3L218,74a3,3,0,0,0-1.4-.6,5.6,5.6,0,0,0-2-.3,6.7,6.7,0,0,0-2.6.5,4.9,4.9,0,0,0-1.9,1.6,8.2,8.2,0,0,0-1.1,2.5,16.9,16.9,0,0,0-.3,3.3,9.9,9.9,0,0,0,1.5,5.9,5.2,5.2,0,0,0,4.3,2.1l1.6-.2,1.2-.4.8-.5.7-.6.7-.4h.7a1.5,1.5,0,0,1,1.3.6l1.9,2.4a11.4,11.4,0,0,1-4.8,3.4,13.1,13.1,0,0,1-2.7.6,12.3,12.3,0,0,1-2.7.2,11.2,11.2,0,0,1-4.4-.9,9.8,9.8,0,0,1-3.6-2.5,12.9,12.9,0,0,1-2.5-4.1,15.5,15.5,0,0,1-.9-5.5,16.5,16.5,0,0,1,.8-5.1,11,11,0,0,1,2.4-4.2,11.3,11.3,0,0,1,3.9-2.7,14.3,14.3,0,0,1,5.3-1,11.9,11.9,0,0,1,5.1,1,14,14,0,0,1,3.9,2.6Z"/><path class="cls-1" d="M225.7,71.9a17.1,17.1,0,0,1,5-3,18.1,18.1,0,0,1,5.8-1,10.2,10.2,0,0,1,4,.8,7.9,7.9,0,0,1,3,2,8.9,8.9,0,0,1,1.9,3.1,10.5,10.5,0,0,1,.7,4V93.6H243a3.4,3.4,0,0,1-1.5-.2,2.4,2.4,0,0,1-.8-1.1l-.5-1.7-1.9,1.5-1.8,1.1a6.5,6.5,0,0,1-2.1.6,9,9,0,0,1-2.4.2,9.5,9.5,0,0,1-3-.4,7,7,0,0,1-2.4-1.3,5.7,5.7,0,0,1-1.5-2.2,6.7,6.7,0,0,1-.6-3,6.6,6.6,0,0,1,3.2-5.3,16.8,16.8,0,0,1,4.6-1.9,34.2,34.2,0,0,1,7.2-.8V77.8a4.9,4.9,0,0,0-1-3.5,3.8,3.8,0,0,0-2.9-1.1,7.5,7.5,0,0,0-2.3.3l-1.6.7-1.4.7a2.1,2.1,0,0,1-1.4.4,1.9,1.9,0,0,1-1.2-.4l-.8-.8Zm13.8,11.2-4.1.4a10.1,10.1,0,0,0-2.6.8,4.2,4.2,0,0,0-1.4,1.1,2.5,2.5,0,0,0-.4,1.4,2.6,2.6,0,0,0,.8,2.1,3.9,3.9,0,0,0,2.3.6,6.5,6.5,0,0,0,2.9-.6,7.2,7.2,0,0,0,2.5-1.9Z"/><path class="cls-1" d="M273.5,68.4l-13.6,32a3.1,3.1,0,0,1-.8,1.1,2.4,2.4,0,0,1-1.4.3h-5l4.8-10.2L247.3,68.4h6a1.6,1.6,0,0,1,1.2.4,1.6,1.6,0,0,1,.6.8l4.8,12.1a12.1,12.1,0,0,1,.5,1.4c.1.5.3,1,.4,1.5a24.7,24.7,0,0,1,1-2.9l4.5-12.1a1.3,1.3,0,0,1,.7-.8,1.5,1.5,0,0,1,1.1-.4Z"/><path class="cls-1" d="M274.5,71.9a16.6,16.6,0,0,1,4.9-3,18.7,18.7,0,0,1,5.9-1,10.2,10.2,0,0,1,4,.8,7.9,7.9,0,0,1,3,2,10.8,10.8,0,0,1,1.9,3.1,12.9,12.9,0,0,1,.6,4V93.6h-3a3,3,0,0,1-1.5-.2,2.4,2.4,0,0,1-.8-1.1l-.5-1.7-1.9,1.5-1.8,1.1a8.3,8.3,0,0,1-2.1.6,9,9,0,0,1-2.4.2,10.6,10.6,0,0,1-3.1-.4,5.8,5.8,0,0,1-2.3-1.3,4.8,4.8,0,0,1-1.5-2.2,6.7,6.7,0,0,1-.6-3,7.7,7.7,0,0,1,.7-2.8,7.4,7.4,0,0,1,2.5-2.5,15.5,15.5,0,0,1,4.6-1.9,34.2,34.2,0,0,1,7.2-.8V77.8a5.4,5.4,0,0,0-1-3.5,4,4,0,0,0-2.9-1.1,7.1,7.1,0,0,0-2.3.3l-1.7.7-1.3.7a2.3,2.3,0,0,1-1.4.4,1.6,1.6,0,0,1-1.2-.4,3,3,0,0,1-.8-.8Zm13.8,11.2a33.3,33.3,0,0,0-4.1.4,10.1,10.1,0,0,0-2.6.8,3.4,3.4,0,0,0-1.4,1.1,2.5,2.5,0,0,0-.4,1.4,2.3,2.3,0,0,0,.8,2.1,3.7,3.7,0,0,0,2.3.6,6.5,6.5,0,0,0,2.9-.6,8.3,8.3,0,0,0,2.5-1.9Z"/><path class="cls-1" d="M102.3,132.1a10.9,10.9,0,0,1-.7,4.2,9.4,9.4,0,0,1-5.3,5.3,10.7,10.7,0,0,1-4.1.8H84.6V121.9h7.6a10.7,10.7,0,0,1,4.1.7,8.9,8.9,0,0,1,3.2,2.1,9.9,9.9,0,0,1,2.1,3.2A11.6,11.6,0,0,1,102.3,132.1Zm-2.8,0a8.4,8.4,0,0,0-.6-3.3,7.2,7.2,0,0,0-1.4-2.6,6.1,6.1,0,0,0-2.3-1.5,7.3,7.3,0,0,0-3-.6H87.3v16h4.9a9.4,9.4,0,0,0,3-.5,6.3,6.3,0,0,0,2.3-1.6,6.8,6.8,0,0,0,1.4-2.5A9,9,0,0,0,99.5,132.1Z"/><path class="cls-1" d="M108.8,123.3a1.4,1.4,0,0,1-.2.7,1.3,1.3,0,0,1-.4.6,1,1,0,0,1-.5.4h-1.4a1.8,1.8,0,0,1-1-1,1.5,1.5,0,0,1-.1-.7,2,2,0,0,1,.1-.7,1,1,0,0,1,.4-.5,1.3,1.3,0,0,1,.6-.4l.7-.2.7.2a2.9,2.9,0,0,1,.9.9A2.5,2.5,0,0,1,108.8,123.3Zm-.6,4.6v14.5h-2.5V127.9Z"/><path class="cls-1" d="M123,142.4h-1.1l-.6-.2c-.1,0-.2-.2-.3-.4l-.3-1.4a4.4,4.4,0,0,1-1.1.9l-1.1.7-1.3.4-1.5.2a4.1,4.1,0,0,1-1.6-.3,2.4,2.4,0,0,1-1.3-.7,3.6,3.6,0,0,1-.8-1.2,2.9,2.9,0,0,1-.4-1.7,3.3,3.3,0,0,1,.5-1.6,3.4,3.4,0,0,1,1.5-1.4,8.2,8.2,0,0,1,2.8-1,16.2,16.2,0,0,1,4.1-.4v-1.2a3.6,3.6,0,0,0-.7-2.5,2.6,2.6,0,0,0-2.1-.9l-1.6.2-1.1.6-.8.5-.6.2h-.5l-.3-.4-.5-.8a10.6,10.6,0,0,1,2.6-1.7,7.3,7.3,0,0,1,5.3-.2,5.8,5.8,0,0,1,1.5,1.1,4,4,0,0,1,1,1.8,7.3,7.3,0,0,1,.3,2.2Zm-6.6-1.6h1.3l1-.4,1-.6.8-.8v-3a12.8,12.8,0,0,0-2.9.2,4.7,4.7,0,0,0-2,.6,2.8,2.8,0,0,0-1.2.8,2.3,2.3,0,0,0-.3,1.1,1.6,1.6,0,0,0,.2,1,1.8,1.8,0,0,0,.5.7l.7.4Z"/><path class="cls-1" d="M131.5,127.6a4.7,4.7,0,0,1,1.7.3,3.4,3.4,0,0,1,1.5.6h4v.9q0,.4-.6.6l-1.7.2a4.6,4.6,0,0,1,.5,2.1,4.1,4.1,0,0,1-.4,1.9,4.2,4.2,0,0,1-1.1,1.5,5.6,5.6,0,0,1-1.7.9,5.4,5.4,0,0,1-2.2.4,5.8,5.8,0,0,1-1.9-.3,1.6,1.6,0,0,0-.7.7.9.9,0,0,0-.3.6.8.8,0,0,0,.5.8,2.3,2.3,0,0,0,1.1.4h3.3l1.8.2,1.5.5a3.6,3.6,0,0,1,1.1,1,2.9,2.9,0,0,1,.4,1.7,3.9,3.9,0,0,1-.4,1.8,5.2,5.2,0,0,1-1.4,1.6,8.2,8.2,0,0,1-2.1,1.1,11.8,11.8,0,0,1-2.8.4,11.4,11.4,0,0,1-2.8-.3,7.5,7.5,0,0,1-2-.9,3.4,3.4,0,0,1-1.2-1.2,4.2,4.2,0,0,1-.4-1.5,2.9,2.9,0,0,1,.7-1.8,5.2,5.2,0,0,1,1.9-1.2,2.6,2.6,0,0,1-1-.7,2.8,2.8,0,0,1-.4-1.3,2.5,2.5,0,0,1,.2-.7.9.9,0,0,1,.3-.6l.6-.7.8-.5a4.4,4.4,0,0,1-1.7-1.6,4.1,4.1,0,0,1-.6-2.3,4.1,4.1,0,0,1,.4-1.9,5.8,5.8,0,0,1,1.1-1.5,5.1,5.1,0,0,1,1.8-.9A7.2,7.2,0,0,1,131.5,127.6Zm4.5,15.5a1.2,1.2,0,0,0-.3-.9l-.8-.5-1.2-.3h-2.9a3.9,3.9,0,0,1-1.5-.2,4.5,4.5,0,0,0-1.3,1,1.7,1.7,0,0,0-.5,1.3,2.9,2.9,0,0,0,.2.9,1.9,1.9,0,0,0,.8.7,2.5,2.5,0,0,0,1.3.5,5,5,0,0,0,1.8.2,5.8,5.8,0,0,0,1.9-.2l1.3-.5a2.4,2.4,0,0,0,.9-.8A2.3,2.3,0,0,0,136,143.1Zm-4.5-7.8,1.3-.2,1-.6a2.4,2.4,0,0,0,.6-.9,3.3,3.3,0,0,0-.6-3.3,2.8,2.8,0,0,0-2.3-.8,3.2,3.2,0,0,0-2.4.8,2.9,2.9,0,0,0-.8,2.1,5,5,0,0,0,.2,1.2l.7.9.9.6Z"/><path class="cls-1" d="M140.9,142.4V127.9h1.5a.7.7,0,0,1,.7.5l.2,1.6a10.5,10.5,0,0,1,2.1-1.7,6,6,0,0,1,2.7-.6,4.6,4.6,0,0,1,2.1.4,3.3,3.3,0,0,1,1.5,1.1,5.5,5.5,0,0,1,1,1.7,7.8,7.8,0,0,1,.3,2.2v9.3h-2.6v-9.3a3.7,3.7,0,0,0-.7-2.5,2.9,2.9,0,0,0-2.3-.9,4.6,4.6,0,0,0-2.1.5,6.5,6.5,0,0,0-1.8,1.5v10.7Z"/><path class="cls-1" d="M162.4,127.7a6.4,6.4,0,0,1,2.8.5,4.8,4.8,0,0,1,2.2,1.5,5.9,5.9,0,0,1,1.4,2.3,10.6,10.6,0,0,1,.5,3.1,9.6,9.6,0,0,1-.5,3.1,5.9,5.9,0,0,1-1.4,2.3,4.8,4.8,0,0,1-2.2,1.5,6.4,6.4,0,0,1-2.8.6,6.8,6.8,0,0,1-2.9-.6,5.4,5.4,0,0,1-2.2-1.5,5.8,5.8,0,0,1-1.3-2.3,7.5,7.5,0,0,1-.5-3.1,8.1,8.1,0,0,1,.5-3.1,5.8,5.8,0,0,1,1.3-2.3,5.4,5.4,0,0,1,2.2-1.5A6.8,6.8,0,0,1,162.4,127.7Zm0,12.9a3.7,3.7,0,0,0,3.2-1.5,6.6,6.6,0,0,0,1-4,6.8,6.8,0,0,0-1-4,3.6,3.6,0,0,0-3.2-1.4,5.4,5.4,0,0,0-1.9.3,3.5,3.5,0,0,0-1.3,1.1,3.4,3.4,0,0,0-.8,1.7,8.5,8.5,0,0,0-.3,2.3,7.5,7.5,0,0,0,.3,2.3,3,3,0,0,0,.8,1.7,2.8,2.8,0,0,0,1.3,1.1A5.3,5.3,0,0,0,162.4,140.6Z"/><path class="cls-1" d="M180.4,130.3a.5.5,0,0,1-.5.3l-.5-.2-.7-.3-.9-.4h-2.4a1.9,1.9,0,0,0-.9.5,1.7,1.7,0,0,0-.6.6,2.9,2.9,0,0,0-.2.9,1.6,1.6,0,0,0,.3.9l.9.6a3.3,3.3,0,0,0,1.2.5l1.4.5,1.4.5,1.2.7a3.9,3.9,0,0,1,.8,1,3.7,3.7,0,0,1,.3,1.5,5.8,5.8,0,0,1-.3,1.9,4.9,4.9,0,0,1-1.1,1.4,3.7,3.7,0,0,1-1.7,1,5.9,5.9,0,0,1-2.3.4,7.8,7.8,0,0,1-2.8-.5,7.4,7.4,0,0,1-2.1-1.3l.6-.9q.1-.3.3-.3h.4a.7.7,0,0,1,.6.2l.6.4,1,.5,1.5.2,1.3-.2a3.7,3.7,0,0,0,1.5-1.3,2.8,2.8,0,0,0,.1-.9,1.5,1.5,0,0,0-.3-1,2.7,2.7,0,0,0-.8-.7l-1.2-.5-1.4-.4-1.4-.5a3.6,3.6,0,0,1-1.2-.8,2.4,2.4,0,0,1-.9-1.1,3.3,3.3,0,0,1-.3-1.5,2.9,2.9,0,0,1,.4-1.6,3.3,3.3,0,0,1,1-1.4,3.5,3.5,0,0,1,1.6-.9,6.9,6.9,0,0,1,2.2-.3,6.6,6.6,0,0,1,2.5.4,6.7,6.7,0,0,1,2,1.2Z"/><path class="cls-1" d="M187.6,123.3a1.5,1.5,0,0,1-.1.7,1.3,1.3,0,0,1-.4.6l-.6.4h-1.4l-.6-.4c-.1-.2-.3-.3-.3-.6a1.4,1.4,0,0,1-.2-.7,2.5,2.5,0,0,1,.2-.7.9.9,0,0,1,.3-.5l.6-.4.7-.2.7.2.6.4a1,1,0,0,1,.4.5A2,2,0,0,1,187.6,123.3Zm-.5,4.6v14.5h-2.6V127.9Z"/><path class="cls-1" d="M199.5,130.3a.5.5,0,0,1-.5.3l-.5-.2-.6-.3-1-.4h-2.4a2.6,2.6,0,0,0-.9.5l-.5.6a1.5,1.5,0,0,0-.2.9,1.6,1.6,0,0,0,.3.9l.8.6,1.2.5,1.4.5,1.4.5,1.2.7a3.9,3.9,0,0,1,.8,1,2.6,2.6,0,0,1,.4,1.5,5.8,5.8,0,0,1-.4,1.9,3.6,3.6,0,0,1-1.1,1.4,3.2,3.2,0,0,1-1.7,1,5.3,5.3,0,0,1-2.3.4,7.6,7.6,0,0,1-2.7-.5,5.4,5.4,0,0,1-2.1-1.3l.6-.9c0-.2.1-.3.2-.3h.4a.7.7,0,0,1,.6.2l.7.4,1,.5,1.4.2,1.3-.2a2,2,0,0,0,.9-.6,1.3,1.3,0,0,0,.6-.7,2.9,2.9,0,0,0,.2-.9,1.5,1.5,0,0,0-.3-1,3.1,3.1,0,0,0-.9-.7l-1.2-.5-1.4-.4-1.4-.5-1.2-.8a3.1,3.1,0,0,1-.8-1.1,3.3,3.3,0,0,1-.3-1.5,4.1,4.1,0,0,1,.3-1.6,4.5,4.5,0,0,1,1-1.4,4.2,4.2,0,0,1,1.6-.9,7.3,7.3,0,0,1,2.2-.3,7.5,7.5,0,0,1,2.6.4,6.2,6.2,0,0,1,1.9,1.2Z"/><path class="cls-1" d="M225.8,142.4h-2.1l-.6-.2c-.1-.2-.3-.3-.3-.5l-2-4.9h-9.1l-2,4.9c0,.2-.1.3-.3.5l-.6.2h-2.1l8.1-20.5h2.9Zm-13.4-7.6h7.7l-3.2-8.4a13.1,13.1,0,0,1-.7-1.9l-.3,1.1-.3.8Z"/><path class="cls-1" d="M230.4,121.3v12.4h1.1a.5.5,0,0,0,.4-.3l4.6-4.9c.1-.2.3-.3.4-.4h2.9l-5.3,5.7-.4.4-.4.3.4.4.4.5,5.7,7.2h-2.3l-.5-.2c-.2,0-.3-.2-.5-.3l-4.7-6-.5-.4h-1.3v7h-2.6V121.3Z"/><path class="cls-1" d="M244.6,127.9v9.2a4,4,0,0,0,.8,2.6,2.9,2.9,0,0,0,2.3.9,4.2,4.2,0,0,0,2.1-.6,7.3,7.3,0,0,0,1.8-1.4V127.9h2.5v14.5h-1.5a.7.7,0,0,1-.7-.6l-.2-1.5a8.7,8.7,0,0,1-2.1,1.7,6,6,0,0,1-2.7.6,4.6,4.6,0,0,1-2.1-.4,4.2,4.2,0,0,1-1.5-1.1,5.6,5.6,0,0,1-.9-1.7,8.5,8.5,0,0,1-.3-2.3v-9.2Z"/><path class="cls-1" d="M258,142.4V127.9h2.1c.1.1.1.3.2.6v2.2a6.3,6.3,0,0,1,1.9-2.3,3.8,3.8,0,0,1,2.5-.9l1.1.2.9.3-.3,1.9c-.1.3-.2.4-.4.4h-.7l-1.1-.2a3.3,3.3,0,0,0-2.2.8,6.1,6.1,0,0,0-1.5,2.2v9.3Z"/><path class="cls-1" d="M279.3,142.4h-1.1l-.6-.2c-.1,0-.2-.2-.3-.4l-.3-1.4a4.4,4.4,0,0,1-1.1.9,4.1,4.1,0,0,1-1.1.7l-1.3.4-1.5.2a4.1,4.1,0,0,1-1.6-.3,2.4,2.4,0,0,1-1.3-.7,3.6,3.6,0,0,1-.8-1.2,3.9,3.9,0,0,1-.4-1.7,3.3,3.3,0,0,1,.5-1.6,3.4,3.4,0,0,1,1.5-1.4,9.1,9.1,0,0,1,2.8-1,16.2,16.2,0,0,1,4.1-.4v-1.2a3.6,3.6,0,0,0-.7-2.5,2.6,2.6,0,0,0-2.1-.9l-1.6.2-1.1.6-.8.5-.6.2h-.5l-.3-.4-.5-.8a10.6,10.6,0,0,1,2.6-1.7,8.1,8.1,0,0,1,3.1-.6,7.8,7.8,0,0,1,2.2.4,5.8,5.8,0,0,1,1.5,1.1,4,4,0,0,1,1,1.8,7.3,7.3,0,0,1,.3,2.2Zm-6.6-1.6H274l1-.4,1-.6.8-.8v-3a12.8,12.8,0,0,0-2.9.2,4.7,4.7,0,0,0-2,.6,2.8,2.8,0,0,0-1.2.8,2.3,2.3,0,0,0-.3,1.1,1.6,1.6,0,0,0,.2,1,1.8,1.8,0,0,0,.5.7l.7.4Z"/><path class="cls-1" d="M287.3,142.6a3.3,3.3,0,0,1-2.6-1,3.7,3.7,0,0,1-1-2.7V130h-2.1a.6.6,0,0,1-.1-.4v-1.1l2.3-.3.6-4.4a.5.5,0,0,1,.2-.4h1.7v5h4.1V130h-4.1v8.7a2,2,0,0,0,.4,1.4,1.6,1.6,0,0,0,1.2.4h.7l.5-.2.3-.3h.3a.5.5,0,0,1,.4.3l.7,1.2a4.2,4.2,0,0,1-1.6.9A4.1,4.1,0,0,1,287.3,142.6Z"/><path class="cls-1" d="M292.5,140.6a1.4,1.4,0,0,1,.2-.6.9.9,0,0,1,.3-.5l.5-.4H295l.5.5.4.6a2.2,2.2,0,0,1,.1.8,7.8,7.8,0,0,1-.2,1.4,6.9,6.9,0,0,1-.5,1.3,3.8,3.8,0,0,1-.9,1.3,4.3,4.3,0,0,1-1.1,1.2l-.4-.4c-.2-.1-.2-.2-.2-.4s0-.2.2-.4l.3-.4.5-.6.4-.8.3-.8h-.2l-.7-.2-.5-.3c-.1-.2-.3-.4-.3-.6A1.4,1.4,0,0,1,292.5,140.6Z"/><path class="cls-1" d="M42.5,168.4v7.7H39.8V155.6h6a11.1,11.1,0,0,1,3.4.5,5.5,5.5,0,0,1,2.4,1.3,4.8,4.8,0,0,1,1.4,2,6.7,6.7,0,0,1,.5,2.6,7.5,7.5,0,0,1-.5,2.6,6.2,6.2,0,0,1-1.5,2,6.9,6.9,0,0,1-2.4,1.4,10.6,10.6,0,0,1-3.3.4Zm0-2.2h3.3a6.6,6.6,0,0,0,2.1-.3,5.3,5.3,0,0,0,1.5-.8,3.3,3.3,0,0,0,1-1.4,4.7,4.7,0,0,0,.3-1.7,4.1,4.1,0,0,0-1.2-3.1,5.4,5.4,0,0,0-3.7-1.1H42.5Z"/><path class="cls-1" d="M61.6,161.4a6.7,6.7,0,0,1,2.4.4,5.9,5.9,0,0,1,1.9,1.3,5.6,5.6,0,0,1,1.2,2,7.8,7.8,0,0,1,.5,2.8,1.5,1.5,0,0,1-.2.8c0,.1-.2.2-.4.2H57.3a8.6,8.6,0,0,0,.4,2.4,3.8,3.8,0,0,0,2.4,2.7,4.8,4.8,0,0,0,1.8.3l1.7-.2,1.2-.5.8-.5.6-.2.5.2.7,1a5.2,5.2,0,0,1-1.1,1l-1.4.7-1.6.4H61.7a7.6,7.6,0,0,1-2.7-.5,4.8,4.8,0,0,1-2.2-1.5,7,7,0,0,1-1.5-2.4,11.4,11.4,0,0,1-.5-3.3,9.3,9.3,0,0,1,.5-2.9,6.1,6.1,0,0,1,1.3-2.2,5.1,5.1,0,0,1,2.1-1.5A6.8,6.8,0,0,1,61.6,161.4Zm0,1.9a3.9,3.9,0,0,0-2.9,1,5.2,5.2,0,0,0-1.3,3h7.9a4.1,4.1,0,0,0-.3-1.6,3.3,3.3,0,0,0-.7-1.3,2.8,2.8,0,0,0-1.1-.8A4.1,4.1,0,0,0,61.6,163.3Z"/><path class="cls-1" d="M70.5,176.1V161.6H72a.7.7,0,0,1,.7.6l.2,1.5A15.7,15.7,0,0,1,75,162a6,6,0,0,1,2.7-.6,4.6,4.6,0,0,1,2.1.4,4.2,4.2,0,0,1,1.5,1.1,9.5,9.5,0,0,1,1,1.7,8.5,8.5,0,0,1,.3,2.3v9.2H80v-9.2a4,4,0,0,0-.7-2.6,2.9,2.9,0,0,0-2.3-.9,3.7,3.7,0,0,0-2.1.6,4.9,4.9,0,0,0-1.8,1.4v10.7Z"/><path class="cls-1" d="M96.8,176.1H95a1.1,1.1,0,0,1-.3-.5l-.3-1.3-1.1.9a4.1,4.1,0,0,1-1.1.7l-1.3.4H89.4a4.1,4.1,0,0,1-1.6-.2l-1.3-.7a3.6,3.6,0,0,1-.8-1.2,4.7,4.7,0,0,1-.3-1.7,3.5,3.5,0,0,1,.4-1.7,5.1,5.1,0,0,1,1.5-1.4,12.8,12.8,0,0,1,2.8-1,16.6,16.6,0,0,1,4.2-.4v-1.1a3.8,3.8,0,0,0-.8-2.6,2.5,2.5,0,0,0-2.1-.9,4.1,4.1,0,0,0-1.6.3l-1.1.5-.8.5a.9.9,0,0,1-.6.3l-.5-.2-.3-.3-.4-.8a8.3,8.3,0,0,1,2.5-1.8,10.6,10.6,0,0,1,3.1-.5,5.4,5.4,0,0,1,2.2.4,4.2,4.2,0,0,1,1.6,1.1,4.6,4.6,0,0,1,.9,1.7,7.8,7.8,0,0,1,.4,2.2Zm-6.6-1.6h1.2l1-.4a2.1,2.1,0,0,0,1-.6l.9-.8v-3l-3,.2-2,.6a3.8,3.8,0,0,0-1.2.9,2,2,0,0,0-.3,1.1,3.6,3.6,0,0,0,.2,1,1.5,1.5,0,0,0,.5.6l.7.4Z"/><path class="cls-1" d="M100.3,176.1V161.6h1.5a.7.7,0,0,1,.7.6l.2,1.5a15.7,15.7,0,0,1,2.1-1.7,6,6,0,0,1,2.7-.6,4.6,4.6,0,0,1,2.1.4,4.2,4.2,0,0,1,1.5,1.1,9.5,9.5,0,0,1,1,1.7,8.5,8.5,0,0,1,.3,2.3v9.2h-2.6v-9.2a4,4,0,0,0-.7-2.6,2.9,2.9,0,0,0-2.3-.9,3.7,3.7,0,0,0-2.1.6,4.9,4.9,0,0,0-1.8,1.4v10.7Z"/><path class="cls-1" d="M120.8,161.4l1.8.2,1.5.6H128v.9a.5.5,0,0,1-.6.6l-1.7.3a3.5,3.5,0,0,1,.5,2,4.2,4.2,0,0,1-.4,2,4.9,4.9,0,0,1-1.1,1.4,4.2,4.2,0,0,1-1.7,1,7.8,7.8,0,0,1-2.2.3l-1.9-.2a2.2,2.2,0,0,0-.7.6,1,1,0,0,0-.2.7.9.9,0,0,0,.4.8,2.3,2.3,0,0,0,1.1.4h5.1a5.2,5.2,0,0,1,1.5.6,1.8,1.8,0,0,1,1.1,1,2.5,2.5,0,0,1,.5,1.6,4.1,4.1,0,0,1-.5,1.8,5.4,5.4,0,0,1-3.5,2.7,8.2,8.2,0,0,1-2.8.4,11.4,11.4,0,0,1-2.8-.3,9.3,9.3,0,0,1-2-.8,4.9,4.9,0,0,1-1.2-1.3,3.2,3.2,0,0,1-.3-1.4,2.8,2.8,0,0,1,.6-1.8,5.2,5.2,0,0,1,1.9-1.2,3.9,3.9,0,0,1-1-.8,2.3,2.3,0,0,1-.3-1.3,1.3,1.3,0,0,1,.1-.6,2.1,2.1,0,0,1,.3-.7l.6-.6.8-.5a5.2,5.2,0,0,1-1.7-1.6,4.8,4.8,0,0,1-.6-2.4,3.8,3.8,0,0,1,1.6-3.3,3.2,3.2,0,0,1,1.7-1A7.8,7.8,0,0,1,120.8,161.4Zm4.5,15.4a1.6,1.6,0,0,0-.3-.9l-.8-.5-1.2-.2h-2.9l-1.5-.2a4.3,4.3,0,0,0-1.3.9,2.2,2.2,0,0,0-.5,1.4,2.9,2.9,0,0,0,.2.9l.8.7,1.3.5,1.8.2,1.9-.2a3.9,3.9,0,0,0,1.3-.6,2.4,2.4,0,0,0,.9-.8A2,2,0,0,0,125.3,176.8Zm-4.5-7.8a3.2,3.2,0,0,0,1.4-.2,2.1,2.1,0,0,0,1-.6,3.5,3.5,0,0,0,.6-.9,5,5,0,0,0,.2-1.2,2.6,2.6,0,0,0-.9-2.1,3.7,3.7,0,0,0-4.6,0,3.3,3.3,0,0,0-.6,3.3,1.5,1.5,0,0,0,.6.9,1.7,1.7,0,0,0,1,.6A2.5,2.5,0,0,0,120.8,169Z"/><path class="cls-1" d="M140.9,176.1h-1.8a1.1,1.1,0,0,1-.3-.5l-.2-1.3-1.2.9a4.1,4.1,0,0,1-1.1.7l-1.3.4h-1.5a4.1,4.1,0,0,1-1.6-.2,3.5,3.5,0,0,1-1.2-.7,2.7,2.7,0,0,1-.9-1.2,4.7,4.7,0,0,1-.3-1.7,3.5,3.5,0,0,1,.4-1.7,5.6,5.6,0,0,1,1.6-1.4,11.8,11.8,0,0,1,2.7-1,16.6,16.6,0,0,1,4.2-.4v-1.1a3.8,3.8,0,0,0-.8-2.6,2.3,2.3,0,0,0-2.1-.9,4.1,4.1,0,0,0-1.6.3l-1.1.5-.8.5a.9.9,0,0,1-.6.3l-.5-.2-.3-.3-.4-.8a7.6,7.6,0,0,1,2.6-1.8,9.4,9.4,0,0,1,3-.5,5.1,5.1,0,0,1,2.2.4,4.2,4.2,0,0,1,1.6,1.1,4.6,4.6,0,0,1,.9,1.7,5.4,5.4,0,0,1,.4,2.2Zm-6.6-1.6h1.2l1-.4a2.1,2.1,0,0,0,1-.6l.9-.8v-3l-3,.2-2,.6c-.5.3-.9.5-1.1.9a1.5,1.5,0,0,0-.4,1.1,3.6,3.6,0,0,0,.2,1,1.5,1.5,0,0,0,.5.6l.7.4Z"/><path class="cls-1" d="M144.4,176.1V161.6H146q.5,0,.6.6l.2,1.5a15.7,15.7,0,0,1,2.1-1.7,6,6,0,0,1,2.7-.6,4.6,4.6,0,0,1,2.1.4,4.2,4.2,0,0,1,1.5,1.1,4.2,4.2,0,0,1,1,1.7,8.5,8.5,0,0,1,.3,2.3v9.2h-2.6v-9.2a4,4,0,0,0-.7-2.6,2.9,2.9,0,0,0-2.3-.9,3.7,3.7,0,0,0-2.1.6,4.9,4.9,0,0,0-1.8,1.4v10.7Z"/><path class="cls-1" d="M170.7,176.1h-1.8a1.1,1.1,0,0,1-.3-.5l-.2-1.3-1.2.9a4.1,4.1,0,0,1-1.1.7l-1.3.4h-1.5a4.1,4.1,0,0,1-1.6-.2,3.5,3.5,0,0,1-1.2-.7,2.7,2.7,0,0,1-.9-1.2,4.7,4.7,0,0,1-.3-1.7,3.5,3.5,0,0,1,.4-1.7,5.6,5.6,0,0,1,1.6-1.4,11.8,11.8,0,0,1,2.7-1,16.6,16.6,0,0,1,4.2-.4v-1.1a3.8,3.8,0,0,0-.8-2.6,2.3,2.3,0,0,0-2.1-.9,4.1,4.1,0,0,0-1.6.3l-1.1.5-.8.5a.9.9,0,0,1-.6.3l-.5-.2-.3-.3-.4-.8a7.6,7.6,0,0,1,2.6-1.8,9.4,9.4,0,0,1,3-.5,5.1,5.1,0,0,1,2.2.4,4.2,4.2,0,0,1,1.6,1.1,4.6,4.6,0,0,1,.9,1.7,5.4,5.4,0,0,1,.4,2.2Zm-6.6-1.6h1.2l1-.4a2.1,2.1,0,0,0,1-.6l.9-.8v-3l-3,.2-2,.6c-.5.3-.9.5-1.1.9a1.5,1.5,0,0,0-.4,1.1,3.6,3.6,0,0,0,.2,1,1.5,1.5,0,0,0,.5.6l.7.4Z"/><path class="cls-1" d="M174.2,176.1V161.6h1.6q.4,0,.6.6l.2,1.5a15.7,15.7,0,0,1,2.1-1.7,6,6,0,0,1,2.7-.6,4.6,4.6,0,0,1,2.1.4,4.2,4.2,0,0,1,1.5,1.1,5.9,5.9,0,0,1,1,1.7,8.5,8.5,0,0,1,.3,2.3v9.2h-2.6v-9.2a4,4,0,0,0-.7-2.6,2.9,2.9,0,0,0-2.3-.9,3.7,3.7,0,0,0-2.1.6,4.9,4.9,0,0,0-1.8,1.4v10.7Z"/><path class="cls-1" d="M205.9,169.4l.3.8.3-.8.3-.7,7-12.6.3-.4h2.7v20.5h-2.5V160.4a1.5,1.5,0,0,0,.1-.7l-7,12.8c-.3.4-.6.7-1,.7H206a1.1,1.1,0,0,1-1-.7l-7.2-12.8c0,.2.1.5.1.7v15.7h-2.4V155.6h2.6l.4.4,7,12.6A2.5,2.5,0,0,1,205.9,169.4Z"/><path class="cls-1" d="M226.8,161.4a6.1,6.1,0,0,1,2.4.4,5,5,0,0,1,1.9,1.3,5.6,5.6,0,0,1,1.2,2,7.8,7.8,0,0,1,.5,2.8c0,.4-.1.6-.1.8l-.5.2h-9.7a15,15,0,0,0,.4,2.4,5.9,5.9,0,0,0,1,1.7,5,5,0,0,0,1.4,1,5.2,5.2,0,0,0,1.8.3l1.7-.2,1.2-.5.8-.5.6-.2.5.2.7,1a5.2,5.2,0,0,1-1.1,1l-1.4.7-1.6.4h-1.6a7.6,7.6,0,0,1-2.7-.5,4.8,4.8,0,0,1-2.2-1.5,7,7,0,0,1-1.5-2.4,11.4,11.4,0,0,1-.5-3.3,9.3,9.3,0,0,1,.5-2.9,8,8,0,0,1,1.3-2.2A4.8,4.8,0,0,1,224,162,6.1,6.1,0,0,1,226.8,161.4Zm0,1.9a4.1,4.1,0,0,0-2.9,1,5.2,5.2,0,0,0-1.3,3h7.9a7.8,7.8,0,0,0-.2-1.6,3.5,3.5,0,0,0-.8-1.3,2.3,2.3,0,0,0-1.1-.8A4.1,4.1,0,0,0,226.8,163.3Z"/><path class="cls-1" d="M245.9,176.1a.8.8,0,0,1-.7-.5l-.2-1.8a6,6,0,0,1-2.1,1.8,5,5,0,0,1-2.7.7,5.6,5.6,0,0,1-2.3-.5,4.6,4.6,0,0,1-1.7-1.4,5.5,5.5,0,0,1-1.1-2.3,12.2,12.2,0,0,1,0-6.2,7,7,0,0,1,1.3-2.4,4.7,4.7,0,0,1,1.9-1.5,5.8,5.8,0,0,1,2.6-.6,5.3,5.3,0,0,1,2.3.4,5.2,5.2,0,0,1,1.7,1.3v-8h2.5v21Zm-4.9-1.9a4,4,0,0,0,2.2-.5,6.4,6.4,0,0,0,1.7-1.6v-7a4.8,4.8,0,0,0-1.5-1.4,5.8,5.8,0,0,0-1.9-.3,3.5,3.5,0,0,0-3.1,1.4,6.9,6.9,0,0,0-1.1,4.1,7.8,7.8,0,0,0,.3,2.4,3.8,3.8,0,0,0,.7,1.7,3.1,3.1,0,0,0,1.1.9A4.1,4.1,0,0,0,241,174.2Z"/><path class="cls-1" d="M254.8,157.1a1.7,1.7,0,0,1-.1.7l-.4.6-.6.3-.7.2-.7-.2-.6-.3-.4-.6c0-.2-.1-.5-.1-.7s.1-.5.1-.7l.4-.6.6-.4h1.4l.6.4.4.6A1.5,1.5,0,0,1,254.8,157.1Zm-.5,4.5v14.5h-2.6V161.6Z"/><path class="cls-1" d="M266.7,164a.5.5,0,0,1-.5.3h-.5l-.6-.4-1-.3-1.3-.2-1.1.2-.9.4a1.8,1.8,0,0,0-.5.7,1.1,1.1,0,0,0-.2.8,1.2,1.2,0,0,0,.3.9,2.7,2.7,0,0,0,.8.7l1.2.5,1.4.4,1.4.5,1.2.7a4.4,4.4,0,0,1,.8,1.1,2.4,2.4,0,0,1,.4,1.5,5.3,5.3,0,0,1-.4,1.8,3.3,3.3,0,0,1-1.1,1.5,5.5,5.5,0,0,1-1.7,1,7.5,7.5,0,0,1-2.3.3,6.6,6.6,0,0,1-2.8-.5,5.6,5.6,0,0,1-2-1.2l.6-1,.2-.3h.4l.6.2.7.5,1,.4,1.4.2,1.3-.2a1.9,1.9,0,0,0,.9-.5,1.6,1.6,0,0,0,.6-.8,2.9,2.9,0,0,0,.2-.9,1.7,1.7,0,0,0-.3-1c-.3-.2-.5-.5-.9-.6l-1.2-.5-1.4-.5L260,169l-1.2-.7a4.4,4.4,0,0,1-.8-1.1,4.2,4.2,0,0,1-.4-1.6,4.7,4.7,0,0,1,.4-1.6,3.1,3.1,0,0,1,1-1.3,6.2,6.2,0,0,1,1.6-1,7.3,7.3,0,0,1,2.2-.3,7.5,7.5,0,0,1,2.6.5,6.2,6.2,0,0,1,1.9,1.2Z"/><path class="cls-1" d="M290.1,155.6V158h-6.6v18.1h-2.7V158h-6.7v-2.4Z"/><path class="cls-1" d="M295.1,161.4a6.1,6.1,0,0,1,2.4.4,5,5,0,0,1,1.9,1.3,5.6,5.6,0,0,1,1.2,2,7.8,7.8,0,0,1,.5,2.8,1.7,1.7,0,0,1-.1.8l-.5.2h-9.6a8.8,8.8,0,0,0,.3,2.4,9.5,9.5,0,0,0,1,1.7,5,5,0,0,0,1.4,1,5.8,5.8,0,0,0,1.9.3l1.6-.2,1.2-.5.8-.5.6-.2.5.2.7,1a5.2,5.2,0,0,1-1.1,1l-1.4.7-1.6.4h-1.6a7.6,7.6,0,0,1-2.7-.5,4.8,4.8,0,0,1-2.2-1.5,5.7,5.7,0,0,1-1.4-2.4,8.8,8.8,0,0,1-.6-3.3,9.3,9.3,0,0,1,.5-2.9,8,8,0,0,1,1.3-2.2,4.8,4.8,0,0,1,2.2-1.5A6.4,6.4,0,0,1,295.1,161.4Zm.1,1.9a3.8,3.8,0,0,0-2.9,1,5.3,5.3,0,0,0-1.4,3h7.9a7.8,7.8,0,0,0-.2-1.6,5.4,5.4,0,0,0-.7-1.3,3.2,3.2,0,0,0-1.2-.8A3.7,3.7,0,0,0,295.2,163.3Z"/><path class="cls-1" d="M304.1,181V161.6h1.5a.7.7,0,0,1,.7.6l.2,1.7a6,6,0,0,1,2.1-1.8,5,5,0,0,1,2.7-.7,4.3,4.3,0,0,1,2.3.5,3.3,3.3,0,0,1,1.7,1.4,5.5,5.5,0,0,1,1.1,2.3,12.2,12.2,0,0,1,0,6.2,7.1,7.1,0,0,1-1.2,2.3,6.2,6.2,0,0,1-2,1.6,5.8,5.8,0,0,1-2.6.6,5.3,5.3,0,0,1-2.3-.4,5.5,5.5,0,0,1-1.7-1.3V181Zm6.4-17.6a4,4,0,0,0-2.2.6,6.4,6.4,0,0,0-1.7,1.6v7a4.4,4.4,0,0,0,1.5,1.3,4.1,4.1,0,0,0,1.9.4,3.5,3.5,0,0,0,3.1-1.4,6.9,6.9,0,0,0,1.1-4.1,9,9,0,0,0-.3-2.5,3.9,3.9,0,0,0-.7-1.6,2.6,2.6,0,0,0-1.1-1A4.1,4.1,0,0,0,310.5,163.4Z"/><path class="cls-1" d="M330.2,176.1h-1.8a1.1,1.1,0,0,1-.3-.5l-.2-1.3-1.2.9a4.1,4.1,0,0,1-1.1.7l-1.3.4h-1.5a4.4,4.4,0,0,1-1.6-.2,3.5,3.5,0,0,1-1.2-.7,2.7,2.7,0,0,1-.9-1.2,4.7,4.7,0,0,1-.3-1.7,3.5,3.5,0,0,1,.4-1.7,5.6,5.6,0,0,1,1.6-1.4,11.8,11.8,0,0,1,2.7-1,16.6,16.6,0,0,1,4.2-.4v-1.1a3.8,3.8,0,0,0-.8-2.6,2.3,2.3,0,0,0-2.1-.9,4.1,4.1,0,0,0-1.6.3l-1.1.5-.8.5a.9.9,0,0,1-.6.3l-.5-.2-.3-.3-.4-.8a7.6,7.6,0,0,1,2.6-1.8,9.4,9.4,0,0,1,3-.5,5.1,5.1,0,0,1,2.2.4,4.2,4.2,0,0,1,1.6,1.1,4.6,4.6,0,0,1,.9,1.7,5.4,5.4,0,0,1,.4,2.2Zm-6.6-1.6h1.2l1-.4a2.1,2.1,0,0,0,1-.6l.9-.8v-3l-3,.2-2,.6c-.5.3-.9.5-1.1.9a1.5,1.5,0,0,0-.4,1.1,3.6,3.6,0,0,0,.2,1,1.5,1.5,0,0,0,.5.6l.7.4Z"/><path class="cls-1" d="M338.1,176.3a3.6,3.6,0,0,1-2.6-.9,4.1,4.1,0,0,1-.9-2.8v-8.8h-1.8l-.4-.2c-.1-.1-.1-.2-.1-.4v-1l2.4-.3.5-4.5.2-.3.4-.2h1.3v5h4.2v1.9h-4.2v8.6a1.8,1.8,0,0,0,.5,1.4,1.2,1.2,0,0,0,1.1.4h.7l.5-.2.4-.2h.2c.2,0,.3,0,.4.2l.7,1.2a4.9,4.9,0,0,1-1.6,1A5.8,5.8,0,0,1,338.1,176.3Z"/></g></g></svg>