<svg xmlns="http://www.w3.org/2000/svg" viewBox="0 0 252.34 26.68"><defs><style>.cls-1{fill:#fff;}</style></defs><title>download sekarang</title><g id="Layer_2" data-name="Layer 2"><g id="Layer_1-2" data-name="Layer 1"><path class="cls-1" d="M18.17,11a11.61,11.61,0,0,1-.75,4.25A9.29,9.29,0,0,1,12,20.65a11.34,11.34,0,0,1-4.22.75H0V.58H7.83A11.36,11.36,0,0,1,12,1.33a9.28,9.28,0,0,1,5.37,5.42A11.63,11.63,0,0,1,18.17,11ZM15,11a10.17,10.17,0,0,0-.51-3.33,7,7,0,0,0-1.44-2.49A6.13,6.13,0,0,0,10.8,3.61a7.83,7.83,0,0,0-3-.54H3.1V18.91H7.83a7.85,7.85,0,0,0,3-.54,6.15,6.15,0,0,0,2.26-1.56,7.05,7.05,0,0,0,1.44-2.49A10.16,10.16,0,0,0,15,11Z"/><path class="cls-1" d="M27.55,6.44A7.79,7.79,0,0,1,30.49,7a6.12,6.12,0,0,1,2.23,1.52,6.8,6.8,0,0,1,1.41,2.39A9.4,9.4,0,0,1,34.63,14a9.47,9.47,0,0,1-.49,3.15,6.7,6.7,0,0,1-1.41,2.39,6.15,6.15,0,0,1-2.23,1.52,8.45,8.45,0,0,1-5.89,0,6.21,6.21,0,0,1-2.24-1.52,6.72,6.72,0,0,1-1.43-2.39,9.34,9.34,0,0,1-.5-3.15,9.28,9.28,0,0,1,.5-3.14,6.82,6.82,0,0,1,1.43-2.39A6.18,6.18,0,0,1,24.6,7,7.83,7.83,0,0,1,27.55,6.44Zm0,13A3.61,3.61,0,0,0,30.67,18a6.6,6.6,0,0,0,1-4,6.64,6.64,0,0,0-1-4,3.6,3.6,0,0,0-3.12-1.41,3.65,3.65,0,0,0-3.15,1.41,6.6,6.6,0,0,0-1,4,6.57,6.57,0,0,0,1,4A3.66,3.66,0,0,0,27.55,19.4Z"/><path class="cls-1" d="M58,6.67,53.3,21.4H51q-.41,0-.55-.54l-3.1-9.6q-.12-.36-.2-.72T47,9.83a10.42,10.42,0,0,1-.36,1.46l-3.15,9.57a.62.62,0,0,1-.62.54H40.75L36,6.67h2.23a.94.94,0,0,1,.56.16.75.75,0,0,1,.3.41l2.65,9q.13.55.23,1.07t.19,1q.13-.52.28-1l.31-1.07,2.94-9.11a.75.75,0,0,1,.28-.4.8.8,0,0,1,.49-.15h1.23a.88.88,0,0,1,.53.15.74.74,0,0,1,.28.4l2.87,9.11.3,1.08q.15.53.26,1.07.09-.52.2-1.05t.26-1.09l2.7-9a.74.74,0,0,1,.3-.41.87.87,0,0,1,.51-.16Z"/><path class="cls-1" d="M63.1,8.71a10,10,0,0,1,1-.93,6.31,6.31,0,0,1,1.11-.72,5.91,5.91,0,0,1,2.7-.63,5.26,5.26,0,0,1,2.14.41A4.25,4.25,0,0,1,71.6,8a4.94,4.94,0,0,1,.94,1.76A7.68,7.68,0,0,1,72.86,12V21.4H70V12a3.75,3.75,0,0,0-.73-2.46,2.71,2.71,0,0,0-2.22-.88,4.22,4.22,0,0,0-2,.51,6.82,6.82,0,0,0-1.76,1.4V21.4H60.45V6.67h1.7a.69.69,0,0,1,.74.57Z"/><path class="cls-1" d="M79.58,0V21.4H76.73V0Z"/><path class="cls-1" d="M89.89,6.44A7.79,7.79,0,0,1,92.82,7a6.12,6.12,0,0,1,2.23,1.52,6.8,6.8,0,0,1,1.41,2.39A9.4,9.4,0,0,1,97,14a9.47,9.47,0,0,1-.49,3.15,6.7,6.7,0,0,1-1.41,2.39,6.15,6.15,0,0,1-2.23,1.52,8.45,8.45,0,0,1-5.89,0,6.21,6.21,0,0,1-2.24-1.52,6.72,6.72,0,0,1-1.43-2.39,9.34,9.34,0,0,1-.5-3.15,9.28,9.28,0,0,1,.5-3.14,6.82,6.82,0,0,1,1.43-2.39A6.18,6.18,0,0,1,86.93,7,7.83,7.83,0,0,1,89.89,6.44Zm0,13A3.61,3.61,0,0,0,93,18a6.6,6.6,0,0,0,1-4,6.64,6.64,0,0,0-1-4,3.6,3.6,0,0,0-3.12-1.41,3.65,3.65,0,0,0-3.15,1.41,6.6,6.6,0,0,0-1,4,6.57,6.57,0,0,0,1,4A3.66,3.66,0,0,0,89.89,19.4Z"/><path class="cls-1" d="M99.73,8.73a8.09,8.09,0,0,1,5.84-2.33,5.66,5.66,0,0,1,2.23.41A4.61,4.61,0,0,1,109.45,8a4.91,4.91,0,0,1,1,1.77,7.22,7.22,0,0,1,.34,2.28v9.4h-1.26a1.2,1.2,0,0,1-.64-.14,1,1,0,0,1-.35-.51l-.3-1.29a12.08,12.08,0,0,1-1.12.92,7.08,7.08,0,0,1-1.15.68,5.88,5.88,0,0,1-1.28.43,7.26,7.26,0,0,1-1.51.15,5.42,5.42,0,0,1-1.63-.24,3.68,3.68,0,0,1-1.33-.73,3.46,3.46,0,0,1-.89-1.23A4.24,4.24,0,0,1,99,17.71,3.27,3.27,0,0,1,99.48,16,4.24,4.24,0,0,1,101,14.59a9.92,9.92,0,0,1,2.78-1,20.85,20.85,0,0,1,4.23-.46V12a3.74,3.74,0,0,0-.71-2.49,2.6,2.6,0,0,0-2.09-.83,4.56,4.56,0,0,0-1.56.23,6,6,0,0,0-1.09.51l-.8.51a1.23,1.23,0,0,1-.7.23.8.8,0,0,1-.5-.16,1.31,1.31,0,0,1-.34-.38ZM108,14.86a21.57,21.57,0,0,0-2.93.27,8,8,0,0,0-2,.56,2.65,2.65,0,0,0-1.09.82,1.77,1.77,0,0,0-.33,1.05,2.28,2.28,0,0,0,.18,1,1.77,1.77,0,0,0,.49.65,2,2,0,0,0,.73.37,3.43,3.43,0,0,0,.91.12,5.13,5.13,0,0,0,1.2-.13,4.77,4.77,0,0,0,1-.37,5.14,5.14,0,0,0,.91-.59,8.16,8.16,0,0,0,.86-.8Z"/><path class="cls-1" d="M126.93,0V21.4h-1.71a.69.69,0,0,1-.74-.57l-.25-1.7a7.81,7.81,0,0,1-2.14,1.79,5.52,5.52,0,0,1-2.76.67,5.2,5.2,0,0,1-2.28-.49,4.81,4.81,0,0,1-1.75-1.44,6.89,6.89,0,0,1-1.12-2.36,12.08,12.08,0,0,1-.39-3.23,10.25,10.25,0,0,1,.44-3,7.28,7.28,0,0,1,1.26-2.44,5.94,5.94,0,0,1,2-1.62,5.85,5.85,0,0,1,2.65-.59,5,5,0,0,1,3.94,1.67V0Zm-2.84,10.24A4,4,0,0,0,122.59,9a4.36,4.36,0,0,0-1.81-.36,3.56,3.56,0,0,0-3,1.4,6.65,6.65,0,0,0-1.07,4.08,10.38,10.38,0,0,0,.24,2.4,4.59,4.59,0,0,0,.7,1.62,2.75,2.75,0,0,0,1.12.93,3.66,3.66,0,0,0,1.51.3,4,4,0,0,0,2.13-.55,6.45,6.45,0,0,0,1.68-1.55Z"/><path class="cls-1" d="M149.57,4a1.19,1.19,0,0,1-.3.36.67.67,0,0,1-.41.12,1.06,1.06,0,0,1-.59-.24q-.33-.24-.83-.54a6.48,6.48,0,0,0-1.2-.54,5.16,5.16,0,0,0-1.67-.24,4.89,4.89,0,0,0-1.6.24,3.37,3.37,0,0,0-1.15.65,2.72,2.72,0,0,0-.7,1A3,3,0,0,0,140.87,6a2.2,2.2,0,0,0,.43,1.39,3.68,3.68,0,0,0,1.12.94A8.77,8.77,0,0,0,144,9l1.81.6a18.45,18.45,0,0,1,1.81.72,6.4,6.4,0,0,1,1.58,1,4.7,4.7,0,0,1,1.12,1.51,5,5,0,0,1,.43,2.18,7,7,0,0,1-.47,2.58,6.07,6.07,0,0,1-1.37,2.1,6.36,6.36,0,0,1-2.21,1.41,8.1,8.1,0,0,1-3,.52,9.62,9.62,0,0,1-3.73-.75,9,9,0,0,1-1.57-.86,7.78,7.78,0,0,1-1.31-1.12l.88-1.48a1.18,1.18,0,0,1,.31-.29.75.75,0,0,1,.41-.12,1.2,1.2,0,0,1,.7.32c.27.21.59.45,1,.7a7.65,7.65,0,0,0,1.41.7,5.5,5.5,0,0,0,2,.32,5.36,5.36,0,0,0,1.71-.25,3.5,3.5,0,0,0,1.27-.73,3.15,3.15,0,0,0,.79-1.14,3.84,3.84,0,0,0,.28-1.48,2.48,2.48,0,0,0-.42-1.49,3.42,3.42,0,0,0-1.12-1,8.19,8.19,0,0,0-1.58-.67l-1.81-.57a18.18,18.18,0,0,1-1.81-.69,5.86,5.86,0,0,1-1.58-1,4.62,4.62,0,0,1-1.12-1.58A5.78,5.78,0,0,1,138,6.13,5.56,5.56,0,0,1,138.43,4a5.47,5.47,0,0,1,1.27-1.85A6.24,6.24,0,0,1,141.75.83a7.48,7.48,0,0,1,2.78-.49,9,9,0,0,1,3.23.56,7.49,7.49,0,0,1,2.56,1.6Z"/><path class="cls-1" d="M166,19.3a5.57,5.57,0,0,1-1.2,1.05,6.92,6.92,0,0,1-1.45.72,8.71,8.71,0,0,1-1.59.41,10.28,10.28,0,0,1-1.62.13,7.59,7.59,0,0,1-2.82-.51,6.26,6.26,0,0,1-2.25-1.51,6.87,6.87,0,0,1-1.48-2.47,10,10,0,0,1-.53-3.39,8.38,8.38,0,0,1,.48-2.86,6.89,6.89,0,0,1,1.37-2.31A6.32,6.32,0,0,1,157.11,7a7.16,7.16,0,0,1,2.9-.57,6.81,6.81,0,0,1,2.49.44,5.53,5.53,0,0,1,2,1.28,5.93,5.93,0,0,1,1.3,2.07,7.85,7.85,0,0,1,.47,2.81,1.79,1.79,0,0,1-.15.88.59.59,0,0,1-.54.22h-9.66a7.94,7.94,0,0,0,.38,2.3,4.64,4.64,0,0,0,.92,1.63,3.67,3.67,0,0,0,1.4,1,4.94,4.94,0,0,0,1.81.32,5.46,5.46,0,0,0,1.63-.22,8,8,0,0,0,1.19-.47q.5-.25.84-.47a1.16,1.16,0,0,1,.6-.22.62.62,0,0,1,.54.26Zm-2.33-6.9a4.84,4.84,0,0,0-.24-1.55,3.53,3.53,0,0,0-.7-1.23,3.19,3.19,0,0,0-1.13-.81,3.82,3.82,0,0,0-1.54-.29,3.78,3.78,0,0,0-2.81,1A5,5,0,0,0,156,12.4Z"/><path class="cls-1" d="M172.1,0V12.51h.67a1.3,1.3,0,0,0,.51-.09,1.19,1.19,0,0,0,.42-.35l4.41-4.86a1.45,1.45,0,0,1,.45-.41,1.28,1.28,0,0,1,.62-.14h2.58l-5.21,5.7a3.41,3.41,0,0,1-.9.83,2.49,2.49,0,0,1,.49.43q.21.25.41.54l5.54,7.24h-2.54a1.43,1.43,0,0,1-.6-.12,1.13,1.13,0,0,1-.46-.42L173.94,15a1.08,1.08,0,0,0-.43-.43,1.71,1.71,0,0,0-.65-.09h-.75v7h-2.83V0Z"/><path class="cls-1" d="M183.81,8.73a8.09,8.09,0,0,1,5.84-2.33,5.66,5.66,0,0,1,2.23.41A4.61,4.61,0,0,1,193.53,8a4.91,4.91,0,0,1,1,1.77,7.22,7.22,0,0,1,.34,2.28v9.4h-1.26a1.2,1.2,0,0,1-.64-.14,1,1,0,0,1-.35-.51l-.3-1.29a12.08,12.08,0,0,1-1.12.92,7.08,7.08,0,0,1-1.15.68,5.88,5.88,0,0,1-1.28.43,7.26,7.26,0,0,1-1.51.15,5.42,5.42,0,0,1-1.63-.24,3.68,3.68,0,0,1-1.33-.73,3.46,3.46,0,0,1-.89-1.23,4.24,4.24,0,0,1-.33-1.73,3.27,3.27,0,0,1,.47-1.67,4.24,4.24,0,0,1,1.54-1.44,9.92,9.92,0,0,1,2.78-1,20.85,20.85,0,0,1,4.23-.46V12a3.74,3.74,0,0,0-.71-2.49,2.6,2.6,0,0,0-2.09-.83,4.56,4.56,0,0,0-1.56.23,6,6,0,0,0-1.09.51l-.8.51a1.23,1.23,0,0,1-.7.23.8.8,0,0,1-.5-.16,1.31,1.31,0,0,1-.34-.38Zm8.29,6.13a21.57,21.57,0,0,0-2.93.27,8,8,0,0,0-2,.56,2.65,2.65,0,0,0-1.09.82,1.77,1.77,0,0,0-.33,1.05,2.28,2.28,0,0,0,.18,1,1.77,1.77,0,0,0,.49.65,2,2,0,0,0,.73.37,3.43,3.43,0,0,0,.91.12,5.13,5.13,0,0,0,1.2-.13,4.77,4.77,0,0,0,1-.37,5.14,5.14,0,0,0,.91-.59,8.16,8.16,0,0,0,.86-.8Z"/><path class="cls-1" d="M201.35,9.5a6.74,6.74,0,0,1,1.71-2.28,3.89,3.89,0,0,1,3.31-.72,2.31,2.31,0,0,1,.75.33L206.93,9a.46.46,0,0,1-.48.39,3.5,3.5,0,0,1-.61-.08,4.47,4.47,0,0,0-.87-.08,3.43,3.43,0,0,0-1.2.2,2.82,2.82,0,0,0-.94.58,4,4,0,0,0-.73.94,9.46,9.46,0,0,0-.59,1.27V21.4h-2.83V6.67h1.62a.9.9,0,0,1,.63.17,1.1,1.1,0,0,1,.24.59Z"/><path class="cls-1" d="M208.7,8.73a8.09,8.09,0,0,1,5.84-2.33,5.66,5.66,0,0,1,2.23.41A4.61,4.61,0,0,1,218.41,8a4.91,4.91,0,0,1,1,1.77,7.22,7.22,0,0,1,.34,2.28v9.4H218.5a1.2,1.2,0,0,1-.64-.14,1,1,0,0,1-.35-.51l-.3-1.29a12.08,12.08,0,0,1-1.12.92,7.08,7.08,0,0,1-1.15.68,5.88,5.88,0,0,1-1.28.43,7.26,7.26,0,0,1-1.51.15,5.42,5.42,0,0,1-1.63-.24,3.68,3.68,0,0,1-1.33-.73,3.46,3.46,0,0,1-.89-1.23,4.24,4.24,0,0,1-.33-1.73,3.27,3.27,0,0,1,.47-1.67A4.24,4.24,0,0,1,210,14.59a9.92,9.92,0,0,1,2.78-1,20.85,20.85,0,0,1,4.23-.46V12a3.74,3.74,0,0,0-.71-2.49,2.6,2.6,0,0,0-2.09-.83,4.56,4.56,0,0,0-1.56.23,6,6,0,0,0-1.09.51l-.8.51a1.23,1.23,0,0,1-.7.23.8.8,0,0,1-.5-.16,1.31,1.31,0,0,1-.34-.38ZM217,14.86a21.57,21.57,0,0,0-2.93.27,8,8,0,0,0-2,.56,2.65,2.65,0,0,0-1.09.82,1.77,1.77,0,0,0-.33,1.05,2.28,2.28,0,0,0,.18,1,1.77,1.77,0,0,0,.49.65,2,2,0,0,0,.73.37,3.43,3.43,0,0,0,.91.12,5.13,5.13,0,0,0,1.2-.13,4.77,4.77,0,0,0,1-.37,5.14,5.14,0,0,0,.91-.59,8.16,8.16,0,0,0,.86-.8Z"/><path class="cls-1" d="M226.21,8.71a10,10,0,0,1,1-.93,6.31,6.31,0,0,1,1.11-.72,5.91,5.91,0,0,1,2.7-.63,5.26,5.26,0,0,1,2.14.41A4.25,4.25,0,0,1,234.71,8a4.94,4.94,0,0,1,.94,1.76A7.68,7.68,0,0,1,236,12V21.4h-2.84V12a3.75,3.75,0,0,0-.73-2.46,2.71,2.71,0,0,0-2.22-.88,4.22,4.22,0,0,0-2,.51,6.82,6.82,0,0,0-1.76,1.4V21.4h-2.83V6.67h1.7a.69.69,0,0,1,.74.57Z"/><path class="cls-1" d="M252.34,7.22V8.28q0,.52-.65.65l-1.58.23a5.09,5.09,0,0,1,.32,1,4.65,4.65,0,0,1,.12,1.05A4.4,4.4,0,0,1,249,14.63a5.2,5.2,0,0,1-1.76,1,7.18,7.18,0,0,1-2.24.33,7.72,7.72,0,0,1-1.87-.22,2.17,2.17,0,0,0-.66.57,1.05,1.05,0,0,0-.22.62.81.81,0,0,0,.43.75,3.24,3.24,0,0,0,1.12.36,13,13,0,0,0,1.58.14q.89,0,1.81.09a16.07,16.07,0,0,1,1.81.23,5.42,5.42,0,0,1,1.58.54,3.05,3.05,0,0,1,1.12,1,3,3,0,0,1,.43,1.67,4,4,0,0,1-.47,1.86,4.9,4.9,0,0,1-1.37,1.59A7.18,7.18,0,0,1,248,26.26a9.44,9.44,0,0,1-2.93.42,11.25,11.25,0,0,1-2.85-.32,6.71,6.71,0,0,1-2-.86,3.68,3.68,0,0,1-1.2-1.25,3,3,0,0,1-.4-1.48,2.63,2.63,0,0,1,.67-1.82,4.39,4.39,0,0,1,1.84-1.17,2.58,2.58,0,0,1-1-.79,2.15,2.15,0,0,1-.38-1.33,2.05,2.05,0,0,1,.12-.66,2.7,2.7,0,0,1,.36-.68,3.49,3.49,0,0,1,.59-.65,4.46,4.46,0,0,1,.82-.55,4.63,4.63,0,0,1-1.71-1.62,4.39,4.39,0,0,1-.62-2.36,4.35,4.35,0,0,1,1.59-3.45,5.26,5.26,0,0,1,1.78-1A7.37,7.37,0,0,1,245,6.42a6.46,6.46,0,0,1,3.29.8Zm-2.87,14.95a1.18,1.18,0,0,0-.29-.83,2,2,0,0,0-.79-.49,5.35,5.35,0,0,0-1.17-.26q-.67-.08-1.4-.12l-1.5-.08q-.77,0-1.48-.14a4.15,4.15,0,0,0-1.24.91,1.82,1.82,0,0,0-.49,1.26,1.69,1.69,0,0,0,.24.87,2,2,0,0,0,.74.7,4.25,4.25,0,0,0,1.26.46,8.68,8.68,0,0,0,1.82.17,8.41,8.41,0,0,0,1.84-.18,4.58,4.58,0,0,0,1.34-.51,2.43,2.43,0,0,0,.83-.78A1.82,1.82,0,0,0,249.47,22.17ZM245,14.05a4,4,0,0,0,1.33-.2,2.62,2.62,0,0,0,1-.57,2.39,2.39,0,0,0,.58-.89,3.25,3.25,0,0,0,.2-1.15,2.73,2.73,0,0,0-.78-2,3.79,3.79,0,0,0-4.55,0,2.73,2.73,0,0,0-.78,2,3.17,3.17,0,0,0,.2,1.14,2.39,2.39,0,0,0,.58.88,2.72,2.72,0,0,0,1,.58A3.81,3.81,0,0,0,245,14.05Z"/></g></g></svg>