<?xml version="1.0" encoding="UTF-8"?>
<svg width="343px" height="39px" viewBox="0 0 343 39" version="1.1" xmlns="http://www.w3.org/2000/svg" xmlns:xlink="http://www.w3.org/1999/xlink">
    <!-- Generator: Sketch 51.2 (57519) - http://www.bohemiancoding.com/sketch -->
    <title>logotype</title>
    <desc>Created with Sketch.</desc>
    <defs>
        <polygon id="path-1" points="0 0 343 0 343 39 0 39"></polygon>
    </defs>
    <g id="DESKTOP-&amp;-MOBILE-" stroke="none" stroke-width="1" fill="none" fill-rule="evenodd">
        <g id="logotype">
            <mask id="mask-2" fill="white">
                <use xlink:href="#path-1"></use>
            </mask>
            <g id="Clip-2"></g>
            <path d="M21.4520943,21.18805 L13.4502591,21.18805 L17.0456673,11.199825 C17.1833783,10.783825 17.3309837,10.41235 17.4772915,9.911525 C17.6214906,10.416575 17.7677984,10.7367 17.9087534,11.1592 L21.4520943,21.18805 Z M14.0140793,0 L0,39 L7.67758993,39 L11.3197129,27.94025 L23.5793964,27.94025 L27.2735867,39 L35,39 L20.9859207,0 L14.0140793,0 Z" id="Fill-1" fill="white" mask="url(#mask-2)"></path>
            <polyline id="Fill-3" fill="white" mask="url(#mask-2)" points="48.5550554 0 42 0 42 39 65 39 65 32.2478 48.5550554 32.2478 48.5550554 0"></polyline>
            <path d="M90.0252593,32.2521875 C83.3727453,32.2521875 78.1623212,26.5406375 78.1623212,19.2479625 C78.1623212,12.2100875 83.3727453,6.697275 90.0252593,6.697275 C96.6500438,6.697275 101.838794,12.2100875 101.838794,19.2479625 C101.838794,26.5406375 96.6500438,32.2521875 90.0252593,32.2521875 Z M90.0252593,0 C79.3567585,0 71,8.454875 71,19.2479625 C71,30.3242875 79.3567585,39 90.0252593,39 C100.664915,39 109,30.3242875 109,19.2479625 C109,8.454875 100.664915,0 90.0252593,0 Z" id="Fill-4" fill="white" mask="url(#mask-2)"></path>
            <path d="M126.593796,6.7523625 L131.792221,6.7523625 C139.825008,6.7523625 144.432784,11.3439625 144.432784,19.448325 C144.432784,27.6180125 139.825008,32.2478 131.792221,32.2478 L126.593796,32.2478 L126.593796,6.7523625 Z M132.158482,0 L119,0 L119,39 L132.158482,39 C144.396745,39 152,31.515575 152,19.448325 C152,7.445425 144.396745,0 132.158482,0 Z" id="Fill-5" fill="white" mask="url(#mask-2)"></path>
            <path d="M179.025897,32.2521875 C172.372371,32.2521875 167.1627,26.5406375 167.1627,19.2479625 C167.1627,12.2100875 172.372371,6.697275 179.025897,6.697275 C185.650737,6.697275 190.83969,12.2100875 190.83969,19.2479625 C190.83969,26.5406375 185.650737,32.2521875 179.025897,32.2521875 Z M179.025897,0 C168.356351,0 160,8.454875 160,19.2479625 C160,30.3242875 168.356351,39 179.025897,39 C189.665164,39 198,30.3242875 198,19.2479625 C198,8.454875 189.665164,0 179.025897,0 Z" id="Fill-6" fill="white" mask="url(#mask-2)"></path>
            <polyline id="Fill-7" fill="white" mask="url(#mask-2)" points="236.363717 0 228.140365 0 218.942454 15.6 215.848025 15.6 215.848025 0 208 0 208 39 215.848025 39 215.848025 22.23585 218.932789 22.23585 228.64617 39 237 39 225.060434 18.622825 236.363717 0"></polyline>
            <polyline id="Fill-8" fill="white" mask="url(#mask-2)" points="240 6.7523625 252.085961 6.7523625 252.085961 39 259.798353 39 259.798353 6.7523625 272 6.7523625 272 0 240 0 240 6.7523625"></polyline>
            <polyline id="Fill-9" fill="white" mask="url(#mask-2)" points="286.629711 22.23585 299.657827 22.23585 299.657827 15.6 286.629711 15.6 286.629711 6.7523625 302.971087 6.7523625 302.971087 0 280 0 280 39 304 39 304 32.2478 286.629711 32.2478 286.629711 22.23585"></polyline>
            <path d="M320.598841,6.7523625 L325.688545,6.7523625 C328.333575,6.7523625 329.375752,6.84645 330.177179,7.26895 C331.72671,8.13475 332.511979,9.8564375 332.511979,12.115675 C332.511979,15.5972375 330.503566,17.81195 327.139514,17.81195 L320.598841,17.81195 L320.598841,6.7523625 Z M334.321651,22.9159125 C334.174616,22.654125 334.03889,22.3526875 333.914475,22.1518375 C337.627535,20.338825 339.957488,16.334175 339.957488,11.6296375 C339.957488,6.4471875 337.318921,2.3697375 333.069423,0.76765 C331.571596,0.2093 329.841097,0 325.843659,0 L314,0 L314,39 L320.598841,39 L320.598841,24.4478 L326.940773,24.4478 L334.662581,39 L343,39 L334.321651,22.9159125 Z" id="Fill-10" fill="white" mask="url(#mask-2)"></path>
        </g>
    </g>
</svg>