<?xml version="1.0" encoding="UTF-8"?>
<svg width="135px" height="40px" viewBox="0 0 135 40" version="1.1" xmlns="http://www.w3.org/2000/svg" xmlns:xlink="http://www.w3.org/1999/xlink">
    <!-- Generator: Sketch 51.2 (57519) - http://www.bohemiancoding.com/sketch -->
    <title>badge android</title>
    <desc>Created with Sketch.</desc>
    <defs>
        <linearGradient x1="91.4762131%" y1="4.9481245%" x2="-38.5502813%" y2="71.9074222%" id="linearGradient-1">
            <stop stop-color="#00A0FF" offset="0%"></stop>
            <stop stop-color="#00A1FF" offset="1%"></stop>
            <stop stop-color="#00BEFF" offset="26%"></stop>
            <stop stop-color="#00D2FF" offset="51%"></stop>
            <stop stop-color="#00DFFF" offset="76%"></stop>
            <stop stop-color="#00E3FF" offset="100%"></stop>
        </linearGradient>
        <linearGradient x1="107.684729%" y1="50%" x2="-130.640394%" y2="50%" id="linearGradient-2">
            <stop stop-color="#FFE000" offset="0%"></stop>
            <stop stop-color="#FFBD00" offset="41%"></stop>
            <stop stop-color="#FFA500" offset="78%"></stop>
            <stop stop-color="#FF9C00" offset="100%"></stop>
        </linearGradient>
        <linearGradient x1="86.219293%" y1="17.8768889%" x2="-50.1497903%" y2="194.702638%" id="linearGradient-3">
            <stop stop-color="#FF3A44" offset="0%"></stop>
            <stop stop-color="#C31162" offset="100%"></stop>
        </linearGradient>
        <linearGradient x1="-18.7537448%" y1="-54.0521474%" x2="42.1210306%" y2="24.9170664%" id="linearGradient-4">
            <stop stop-color="#32A071" offset="0%"></stop>
            <stop stop-color="#2DA771" offset="7%"></stop>
            <stop stop-color="#15CF74" offset="48%"></stop>
            <stop stop-color="#06E775" offset="80%"></stop>
            <stop stop-color="#00F076" offset="100%"></stop>
        </linearGradient>
    </defs>
    <g id="Page-1" stroke="none" stroke-width="1" fill="none" fill-rule="evenodd">
        <g id="badge-android" fill-rule="nonzero">
            <rect id="Rectangle-path" stroke="#FFFFFF" fill="#000000" x="0.5" y="0.5" width="134" height="39" rx="5"></rect>
            <path d="M68.14,21.75 C65.795425,21.7610334 63.9026739,23.6686811 63.9100209,26.0132706 C63.9173678,28.3578601 65.8220372,30.2536083 68.1666353,30.2499478 C70.5112334,30.2462873 72.409974,28.344601 72.41,26 C72.426473,24.8643738 71.9812316,23.7707097 71.1762551,22.9695037 C70.3712787,22.1682976 69.2755364,21.7281956 68.14,21.75 Z M68.14,28.58 C67.0832273,28.6539053 66.088673,28.0743135 65.6320213,27.1184371 C65.1753697,26.1625607 65.3494358,25.0246828 66.0709659,24.249038 C66.7924959,23.4733932 67.9148379,23.2176324 68.9011878,23.6040831 C69.8875378,23.9905338 70.5374189,24.9406494 70.54,26 C70.5725428,26.6626719 70.3360327,27.3103928 69.8841403,27.7961771 C69.432248,28.2819613 68.8032921,28.5646164 68.14,28.58 Z M58.83,21.75 C56.4840995,21.7555198 54.5863275,23.6607469 54.5900052,26.006651 C54.5936829,28.3525551 56.4974192,30.2518225 58.8433255,30.2499869 C61.1892318,30.2481513 63.0899935,28.345907 63.09,26 C63.106473,24.8643738 62.6612316,23.7707097 61.8562551,22.9695037 C61.0512787,22.1682976 59.9555364,21.7281956 58.82,21.75 L58.83,21.75 Z M58.83,28.58 C57.7726757,28.658073 56.7752215,28.0813713 56.3153517,27.1260966 C55.8554819,26.1708219 56.0268227,25.0314615 56.7473134,24.2536934 C57.467804,23.4759253 58.5907575,23.2180976 59.5783538,23.6036927 C60.5659501,23.9892877 61.2171215,24.9398011 61.22,26 C61.2525428,26.6626719 61.0160327,27.3103928 60.5641403,27.7961771 C60.112248,28.2819613 59.4832921,28.5646164 58.82,28.58 L58.83,28.58 Z M47.74,23.06 L47.74,24.86 L52.06,24.86 C51.9922634,25.7078038 51.6398446,26.5077945 51.06,27.13 C50.1860229,28.0202246 48.9765432,28.499658 47.73,28.45 C45.0790332,28.45 42.93,26.3009668 42.93,23.65 C42.93,20.9990332 45.0790332,18.85 47.73,18.85 C48.9477957,18.8301388 50.123762,19.2940521 51,20.14 L52.27,18.87 C51.0749196,17.6598581 49.4407184,16.9852541 47.74,17 C45.3189608,16.905779 43.0403936,18.1436718 41.801854,20.2260571 C40.5633145,22.3084423 40.5633145,24.9015577 41.801854,26.9839429 C43.0403936,29.0663282 45.3189608,30.304221 47.74,30.21 C49.471765,30.2882543 51.1527407,29.6136762 52.35,28.36 C53.3976757,27.2089216 53.9570431,25.6957612 53.91,24.14 C53.9132269,23.7609882 53.8797372,23.3825548 53.81,23.01 L47.74,23.06 Z M93.05,24.46 C92.5160796,22.8892101 91.0679278,21.811053 89.41,21.75 C88.3043635,21.7478383 87.2471451,22.2034076 86.4893794,23.0085336 C85.7316138,23.8136596 85.3408955,24.8965231 85.41,26 C85.385441,27.1292961 85.8211644,28.2200283 86.6170522,29.0215741 C87.4129399,29.8231198 88.5005582,30.2665588 89.63,30.25 C91.0508585,30.257659 92.3806434,29.5514455 93.17,28.37 L91.72,27.37 C91.279746,28.1039422 90.4858563,28.552167 89.63,28.55 C88.7435914,28.5837851 87.9266413,28.0721998 87.57,27.26 L93.26,24.91 L93.05,24.46 Z M87.25,25.88 C87.2090519,25.2551643 87.4213257,24.640145 87.8389667,24.1735911 C88.2566076,23.7070373 88.8444602,23.4282216 89.47,23.4 C90.1293698,23.3565516 90.7510664,23.7106826 91.05,24.3 L87.25,25.88 Z M82.63,30 L84.5,30 L84.5,17.5 L82.63,17.5 L82.63,30 Z M79.57,22.7 L79.5,22.7 C78.9299621,22.0626768 78.1150572,21.69888 77.26,21.7 C74.9901469,21.8100717 73.2063371,23.6824796 73.2063371,25.955 C73.2063371,28.2275204 74.9901469,30.0999283 77.26,30.21 C78.117829,30.2244237 78.9380159,29.8582688 79.5,29.21 L79.56,29.21 L79.56,29.82 C79.56,31.45 78.69,32.32 77.29,32.32 C76.336303,32.2976774 75.4907281,31.7010334 75.15,30.81 L73.52,31.49 C74.1476816,33.016811 75.6392308,34.0098583 77.29,34 C79.48,34 81.29,32.71 81.29,29.57 L81.29,22 L79.57,22 L79.57,22.7 Z M77.43,28.58 C76.0928876,28.4621598 75.0673763,27.342295 75.0673763,26 C75.0673763,24.657705 76.0928876,23.5378402 77.43,23.42 C78.0761196,23.4531575 78.6814859,23.7457702 79.1088498,24.2314965 C79.5362137,24.7172228 79.749373,25.3549169 79.7,26 C79.7551348,26.6480494 79.5426575,27.2904311 79.1119703,27.7777877 C78.6812831,28.2651443 78.0699104,28.5550138 77.42,28.58 L77.43,28.58 Z M101.81,17.5 L97.33,17.5 L97.33,30 L99.2,30 L99.2,25.26 L101.81,25.26 C103.262684,25.3643638 104.651974,24.648509 105.41013,23.404973 C106.168286,22.161437 106.168286,20.598563 105.41013,19.355027 C104.651974,18.111491 103.262684,17.3956362 101.81,17.5 Z M101.81,23.5 L99.2,23.5 L99.2,19.24 L101.85,19.24 C103.034651,19.24 103.995,20.2003492 103.995,21.385 C103.995,22.5696508 103.034651,23.53 101.85,23.53 L101.81,23.5 Z M113.34,21.7 C111.948713,21.6168389 110.640687,22.367088 110.01,23.61 L111.67,24.3 C112.004406,23.6836682 112.671125,23.3228556 113.37,23.38 C113.849528,23.3239946 114.331454,23.4629701 114.707528,23.7657102 C115.083603,24.0684503 115.322299,24.5095749 115.37,24.99 L115.37,25.12 C114.769393,24.8019991 114.099592,24.6371252 113.42,24.64 C111.63,24.64 109.82,25.64 109.82,27.45 C109.855688,28.2297088 110.20524,28.9618295 110.789131,29.4797974 C111.373022,29.9977652 112.141598,30.2575326 112.92,30.2 C113.879229,30.2688831 114.799569,29.8087132 115.32,29 L115.38,29 L115.38,30 L117.18,30 L117.18,25.19 C117.18,23 115.52,21.73 113.39,21.73 L113.34,21.7 Z M113.11,28.55 C112.5,28.55 111.65,28.24 111.65,27.49 C111.65,26.49 112.71,26.16 113.65,26.16 C114.244042,26.1453419 114.831131,26.2903874 115.35,26.58 C115.220696,27.699415 114.286524,28.5525405 113.16,28.58 L113.11,28.55 Z M123.74,22 L121.6,27.42 L121.54,27.42 L119.32,22 L117.32,22 L120.65,29.58 L118.75,33.79 L120.7,33.79 L125.82,22 L123.74,22 Z M106.93,30 L108.8,30 L108.8,17.5 L106.93,17.5 L106.93,30 Z" id="Shape" fill="#FFFFFF"></path>
            <path d="M10.44,7.54 C10.1212366,7.93405554 9.96397325,8.434439 10,8.94 L10,31.06 C9.96955365,31.5682051 10.134065,32.0688917 10.46,32.46 L10.53,32.53 L22.9,20.15 L22.9,19.86 L10.51,7.47 L10.44,7.54 Z" id="Shape" fill="url(#linearGradient-1)"></path>
            <path d="M27,24.28 L22.9,20.15 L22.9,19.86 L27,15.72 L27.09,15.77 L32,18.56 C33.4,19.35 33.4,20.65 32,21.45 L27.11,24.23 L27,24.28 Z" id="Shape" fill="url(#linearGradient-2)"></path>
            <path d="M27.12,24.23 L22.9,20 L10.44,32.46 C11.0287177,32.9775224 11.902429,33.0027256 12.52,32.52 L27.13,24.22" id="Shape" fill="url(#linearGradient-3)"></path>
            <path d="M27.12,15.78 L12.51,7.48 C11.892429,6.99727439 11.0187177,7.0224776 10.43,7.54 L22.9,20 L27.12,15.78 Z" id="Shape" fill="url(#linearGradient-4)"></path>
            <path d="M27,24.13 L12.51,32.38 C11.9170385,32.8233364 11.1029615,32.8233364 10.51,32.38 L10.44,32.45 L10.51,32.52 C11.1018458,32.9666792 11.9181542,32.9666792 12.51,32.52 L27.12,24.22 L27,24.13 Z" id="Shape" fill="#000000" opacity="0.2"></path>
            <path d="M10.44,32.32 C10.114065,31.9288917 9.94955365,31.4282051 9.98,30.92 L9.98,31.07 C9.94955365,31.5782051 10.114065,32.0788917 10.44,32.47 L10.51,32.4 L10.44,32.32 Z" id="Shape" fill="#000000" opacity="0.12"></path>
            <path d="M32,21.3 L27,24.13 L27.09,24.22 L32,21.44 C32.5670701,21.1736132 32.9484684,20.6243997 33,20 C32.8860295,20.5648379 32.516706,21.0449585 32,21.3 Z" id="Shape" fill="#000000" opacity="0.12"></path>
            <path d="M12.51,7.62 L32,18.7 C32.516706,18.9550415 32.8860295,19.4351621 33,20 C32.9484684,19.3756003 32.5670701,18.8263868 32,18.56 L12.51,7.48 C11.12,6.68 10,7.34 10,8.94 L10,9.09 C10,7.49 11.12,6.83 12.51,7.62 Z" id="Shape" fill="#FFFFFF" opacity="0.25"></path>
            <polygon id="Shape" stroke="#FFFFFF" stroke-width="0.2" fill="#FFFFFF" points="43.69 13 42.92 13 42.92 7.74 41.24 7.74 41.24 7 45.36 7 45.36 7.74 43.69 7.74"></polygon>
            <polygon id="Shape" stroke="#FFFFFF" stroke-width="0.2" fill="#FFFFFF" points="49.84 7.74 47.11 7.74 47.11 9.64 49.57 9.64 49.57 10.36 47.11 10.36 47.11 12.26 49.84 12.26 49.84 13 46.34 13 46.34 7 49.84 7"></polygon>
            <polygon id="Shape" stroke="#FFFFFF" stroke-width="0.2" fill="#FFFFFF" points="51 13 51 7 51.77 7 53.86 10.65 53.86 10.65 56 7 56.77 7 56.77 13 56 13 56 9.44 56 8.44 56 8.44 54.12 11.73 53.67 11.73 51.82 8.43 51.82 8.43 51.82 9.43 51.82 13"></polygon>
            <path d="M60.26,13.13 C59.6549236,13.1544064 59.0685269,12.9176624 58.65,12.48 C58.215128,12.0187593 57.981313,11.4036462 58,10.77 L58,7 L58.77,7 L58.77,10.8 C58.7488422,11.2376197 58.8954851,11.6668184 59.18,12 C59.7780804,12.5830499 60.7319196,12.5830499 61.33,12 C61.5883232,11.6740126 61.7197703,11.265461 61.7,10.85 L61.7,7 L62.47,7 L62.47,10.77 C62.4979761,11.3960428 62.2830122,12.0086899 61.87,12.48 C61.4522215,12.9187651 60.8653034,13.1557196 60.26,13.13 Z" id="Shape" stroke="#FFFFFF" stroke-width="0.2" fill="#FFFFFF"></path>
            <polygon id="Shape" stroke="#FFFFFF" stroke-width="0.2" fill="#FFFFFF" points="68.16 7 68.16 7 65.93 9.61 68.31 13 68.31 13 67.36 13 65.36 10.2 64.44 11.26 64.44 13 63.67 13 63.67 7 64.44 7 64.44 10.09 64.44 10.09 67.16 7"></polygon>
            <path d="M68.59,13 L70.85,7 L71.72,7 L74,13 L73.15,13 L72.57,11.37 L70,11.37 L69.45,13 L68.59,13 Z M70.29,10.65 L72.29,10.65 L71.29,7.94 L70.29,10.65 Z" id="Shape" stroke="#FFFFFF" stroke-width="0.2" fill="#FFFFFF"></path>
            <polygon id="Shape" stroke="#FFFFFF" stroke-width="0.2" fill="#FFFFFF" points="74.86 13 74.86 7 75.8 7 78.72 11.67 78.72 11.67 78.72 10.51 78.72 7 79.49 7 79.49 13 78.69 13 75.63 8.11 75.63 8.11 75.63 9.27 75.63 13"></polygon>
            <path d="M82.87,13 L82.87,7 L84.7,7 C85.51914,6.96301656 86.3177196,7.26293561 86.91,7.83 C87.4765124,8.40703223 87.7803427,9.19192709 87.75,10 C87.7829932,10.8066092 87.482859,11.5912974 86.92,12.17 C86.3277196,12.7370644 85.52914,13.0369834 84.71,13 L82.87,13 Z M83.64,12.26 L84.7,12.26 C85.3085576,12.2916923 85.9039444,12.075188 86.35,11.66 C86.7880376,11.2211039 87.0235511,10.6196386 87,10 C87.0341496,9.38624267 86.8134347,8.78560887 86.39,8.34 C85.9439444,7.924812 85.3485576,7.7083077 84.74,7.74 L83.64,7.74 L83.64,12.26 Z" id="Shape" stroke="#FFFFFF" stroke-width="0.2" fill="#FFFFFF"></path>
            <polygon id="Shape" stroke="#FFFFFF" stroke-width="0.2" fill="#FFFFFF" points="88.83 13 88.83 7 89.6 7 89.6 13"></polygon>
        </g>
    </g>
</svg>