<svg width="48" height="48" fill="none" xmlns="http://www.w3.org/2000/svg"><g clip-path="url(#a)"><rect width="48" height="48" rx="24" fill="#E5EFFF" fill-opacity=".43"/><path fill-rule="evenodd" clip-rule="evenodd" d="M21.474 9.357c8.693-1.455 16.754 4.728 17.349 13.349.52 7.348-4.792 14.004-12.185 15.35-2.786.51-5.498.182-7.95-.727-1.82 1.127-4.532 1.563-6.5 1.527-.67 0-1.004-.837-.484-1.273 1.152-1.018 1.71-1.746 2.452-2.983-2.823-2.437-4.718-5.929-4.978-9.93-.52-7.42 4.867-14.077 12.296-15.313zm4.266 21.635h-3.48c-.263 0-.515-.104-.704-.29-.19-.186-.3-.44-.309-.709v-3.168h-3.108c-.268 0-.526-.11-.716-.303a1.044 1.044 0 0 1-.297-.73v-3.548c0-.274.107-.537.297-.73.19-.194.448-.303.716-.303h3.108v-3.169c0-.274.107-.537.297-.73.19-.194.448-.303.716-.303h3.48c.269 0 .526.109.716.303.19.193.297.456.297.73v3.169h3.108c.269 0 .527.109.717.302.19.194.296.457.296.731v3.548c0 .273-.106.536-.296.73-.19.194-.448.303-.717.303h-3.108v3.134c0 .274-.107.537-.297.73-.19.194-.447.303-.716.303z" fill="#3570D2"/><mask id="b" style="mask-type:alpha" maskUnits="userSpaceOnUse" x="9" y="9" width="30" height="30"><path fill-rule="evenodd" clip-rule="evenodd" d="M21.474 9.357c8.693-1.455 16.754 4.728 17.349 13.349.52 7.348-4.792 14.004-12.185 15.35-2.786.51-5.498.182-7.95-.727-1.82 1.127-4.532 1.563-6.5 1.527-.67 0-1.004-.837-.484-1.273 1.152-1.018 1.71-1.746 2.452-2.983-2.823-2.437-4.718-5.929-4.978-9.93-.52-7.42 4.867-14.077 12.296-15.313zm4.266 21.635h-3.48c-.263 0-.515-.104-.704-.29-.19-.186-.3-.44-.309-.709v-3.168h-3.108c-.268 0-.526-.11-.716-.303a1.044 1.044 0 0 1-.297-.73v-3.548c0-.274.107-.537.297-.73.19-.194.448-.303.716-.303h3.108v-3.169c0-.274.107-.537.297-.73.19-.194.448-.303.716-.303h3.48c.269 0 .526.109.716.303.19.193.297.456.297.73v3.169h3.108c.269 0 .527.109.717.302.19.194.296.457.296.731v3.548c0 .273-.106.536-.296.73-.19.194-.448.303-.717.303h-3.108v3.134c0 .274-.107.537-.297.73-.19.194-.447.303-.716.303z" fill="#3570D2"/></mask><g mask="url(#b)"><circle cx="14.857" cy="14.857" r="14.857" fill="#4F81D5"/></g></g><defs><clipPath id="a"><rect width="48" height="48" rx="24" fill="#fff"/></clipPath></defs></svg>