<svg width="74" height="73" viewBox="0 0 74 73" fill="none" xmlns="http://www.w3.org/2000/svg">
<circle cx="37" cy="36.5" r="36.5" fill="white"/>
<path fill-rule="evenodd" clip-rule="evenodd" d="M33.2588 14.8147C46.1308 12.6605 58.0681 21.8165 58.9481 34.5819V34.5817C59.7176 45.4625 51.852 55.3191 40.9047 57.3119C36.7793 58.0657 32.7638 57.5809 29.1332 56.2345C26.4381 57.9041 22.4226 58.5504 19.5071 58.4967C18.5169 58.4967 18.0218 57.2577 18.7921 56.6114C20.4972 55.1034 21.3223 54.026 22.4226 52.1948C18.2418 48.5863 15.4363 43.4154 15.0514 37.4904C14.281 26.5025 22.2578 16.6459 33.2588 14.8147ZM39.5746 46.8519H34.4225L34.4226 46.8519C34.0331 46.8523 33.6588 46.6979 33.3789 46.4218C33.0987 46.1461 32.9351 45.7697 32.9222 45.3731L32.9218 45.3727V40.6808H28.32C27.9222 40.6808 27.5405 40.5196 27.2589 40.2329C26.9777 39.9458 26.8196 39.5566 26.8196 39.1511V33.8982C26.8196 33.4923 26.9777 33.1031 27.2589 32.816C27.5405 32.5293 27.9222 32.3681 28.32 32.3681H32.9221V27.6762C32.9221 27.2703 33.0802 26.8811 33.3614 26.5944C33.643 26.3073 34.0247 26.1462 34.4225 26.1462H39.5746C39.9727 26.1462 40.3544 26.3073 40.636 26.5944C40.9172 26.8811 41.0753 27.2703 41.0753 27.6762V32.3681H45.6771C46.0753 32.3681 46.457 32.5293 46.7385 32.816C47.0198 33.1031 47.1778 33.4923 47.1778 33.8982V39.1511C47.1778 39.5567 47.0198 39.9458 46.7385 40.2329C46.457 40.5197 46.0752 40.6808 45.6771 40.6808H41.0753V45.3218C41.0753 45.7277 40.9172 46.1169 40.636 46.4036C40.3544 46.6907 39.9727 46.8519 39.5746 46.8519Z" fill="#3570D2"/>
<mask id="mask0_5770_56099" style="mask-type:alpha" maskUnits="userSpaceOnUse" x="15" y="14" width="44" height="45">
<path fill-rule="evenodd" clip-rule="evenodd" d="M33.2588 14.8147C46.1308 12.6605 58.0681 21.8165 58.9481 34.5819V34.5817C59.7176 45.4625 51.852 55.3191 40.9047 57.3119C36.7793 58.0657 32.7638 57.5809 29.1332 56.2345C26.4381 57.9041 22.4226 58.5504 19.5071 58.4967C18.5169 58.4967 18.0218 57.2577 18.7921 56.6114C20.4972 55.1034 21.3223 54.026 22.4226 52.1948C18.2418 48.5863 15.4363 43.4154 15.0514 37.4904C14.281 26.5025 22.2578 16.6459 33.2588 14.8147ZM39.5746 46.8519H34.4225L34.4226 46.8519C34.0331 46.8523 33.6588 46.6979 33.3789 46.4218C33.0987 46.1461 32.9351 45.7697 32.9222 45.3731L32.9218 45.3727V40.6808H28.32C27.9222 40.6808 27.5405 40.5196 27.2589 40.2329C26.9777 39.9458 26.8196 39.5566 26.8196 39.1511V33.8982C26.8196 33.4923 26.9777 33.1031 27.2589 32.816C27.5405 32.5293 27.9222 32.3681 28.32 32.3681H32.9221V27.6762C32.9221 27.2703 33.0802 26.8811 33.3614 26.5944C33.643 26.3073 34.0247 26.1462 34.4225 26.1462H39.5746C39.9727 26.1462 40.3544 26.3073 40.636 26.5944C40.9172 26.8811 41.0753 27.2703 41.0753 27.6762V32.3681H45.6771C46.0753 32.3681 46.457 32.5293 46.7385 32.816C47.0198 33.1031 47.1778 33.4923 47.1778 33.8982V39.1511C47.1778 39.5567 47.0198 39.9458 46.7385 40.2329C46.457 40.5197 46.0752 40.6808 45.6771 40.6808H41.0753V45.3218C41.0753 45.7277 40.9172 46.1169 40.636 46.4036C40.3544 46.6907 39.9727 46.8519 39.5746 46.8519Z" fill="#3570D2"/>
</mask>
<g mask="url(#mask0_5770_56099)">
<ellipse cx="23.46" cy="22.9599" rx="22" ry="21.9999" fill="#4F81D5"/>
</g>
</svg>
