<svg width="48" height="48" fill="none" xmlns="http://www.w3.org/2000/svg"><g clip-path="url(#a)"><rect width="48" height="48" rx="24" fill="#E5EFFF" fill-opacity=".43"/><path fill-rule="evenodd" clip-rule="evenodd" d="M33.033 12.25v.82h1.643a2.462 2.462 0 0 1 2.464 2.461v18.044a2.462 2.462 0 0 1-2.464 2.46H13.319a2.462 2.462 0 0 1-2.465-2.46V15.53a2.462 2.462 0 0 1 2.465-2.46h1.643v-.82a.82.82 0 0 1 1.643 0v.82H31.39v-.82a.82.82 0 0 1 1.643 0zm0 4.922a.82.82 0 0 0-.821-.82H15.783a.82.82 0 1 0 0 1.64h16.429a.82.82 0 0 0 .821-.82zm-8.72 5.682a2.725 2.725 0 0 1 3.85 0 2.715 2.715 0 0 1 0 3.845l-4.166 4.158-4.165-4.159a2.715 2.715 0 0 1 0-3.844 2.725 2.725 0 0 1 3.85 0l.315.315.316-.315z" fill="#DB0351"/><mask id="b" style="mask-type:alpha" maskUnits="userSpaceOnUse" x="10" y="11" width="28" height="26"><path fill-rule="evenodd" clip-rule="evenodd" d="M33.037 12.248v.82h1.643a2.462 2.462 0 0 1 2.464 2.46v18.044a2.462 2.462 0 0 1-2.464 2.46H13.323a2.462 2.462 0 0 1-2.465-2.46V15.528a2.462 2.462 0 0 1 2.465-2.46h1.643v-.82a.82.82 0 0 1 1.642 0v.82h14.786v-.82a.82.82 0 0 1 1.643 0zm0 4.92a.82.82 0 0 0-.821-.82h-16.43a.82.82 0 1 0 0 1.64h16.43a.82.82 0 0 0 .82-.82zm-8.72 5.684a2.725 2.725 0 0 1 3.85 0 2.715 2.715 0 0 1 0 3.844L24 30.854l-4.165-4.158a2.715 2.715 0 0 1 0-3.845 2.725 2.725 0 0 1 3.85 0l.315.315.316-.314z" fill="#DB0351"/></mask><g mask="url(#b)"><circle opacity=".25" cx="30.285" cy="34.572" r="13.143" fill="#fff"/></g></g><defs><clipPath id="a"><rect width="48" height="48" rx="24" fill="#fff"/></clipPath></defs></svg>