<svg width="49" height="48" viewBox="0 0 49 48" fill="none" xmlns="http://www.w3.org/2000/svg">
<rect x="0.5" width="48" height="48" rx="24" fill="#E5EFFF" fill-opacity="0.43"/>
<path fill-rule="evenodd" clip-rule="evenodd" d="M29.7452 12.5744C35.1745 14.7222 38.3696 18.5724 39.4346 24.0216L39.4266 24.0136C39.496 24.3637 39.544 24.7208 39.5921 25.0779C39.6161 25.2564 39.6401 25.4349 39.6668 25.6126V26.2013C39.6428 26.2172 39.6188 26.241 39.6108 26.2649C39.2584 27.2275 38.2735 27.4661 37.5288 26.7661C35.5428 24.8887 32.4519 24.8728 30.4579 26.7263C29.9454 27.2036 29.1527 27.2275 28.6161 26.774C28.2318 26.4638 27.8234 26.1694 27.399 25.9308C27.1529 25.7919 26.8874 25.6957 26.605 25.5934C26.483 25.5492 26.3579 25.5039 26.2298 25.4535V25.3819H26.2058V35.0472C26.2058 35.73 26.7625 36.2802 27.447 36.2802C28.1344 36.2802 28.6882 35.7272 28.6882 35.0472C28.6882 34.3882 29.226 33.8539 29.8894 33.8539C30.5528 33.8539 31.0905 34.3882 31.0905 35.0472C31.0905 37.0401 29.4663 38.6667 27.447 38.6667C25.4409 38.6667 23.8035 37.0531 23.8035 35.0472V25.3819H23.7635C23.6914 25.3978 23.6594 25.3978 23.6353 25.3978C22.8025 25.6126 22.0658 26.0024 21.4412 26.5911C20.7606 27.2275 20.184 27.2195 19.5113 26.5911C19.4393 26.5195 19.3672 26.4558 19.2871 26.3922C17.2852 24.7614 14.3704 24.8648 12.4805 26.6308C11.9761 27.1081 11.5276 27.1797 10.911 26.8774C10.4946 26.6786 10.2864 26.2092 10.3425 25.6126C10.3558 25.4853 10.3674 25.358 10.379 25.2308C10.4021 24.9762 10.4252 24.7216 10.4626 24.4671C10.919 21.3646 12.1843 18.6361 14.3704 16.361C16.6125 14.0222 19.3512 12.5823 22.5623 12.0494C22.7786 12.015 22.995 11.9829 23.2125 11.9507C23.3977 11.9232 23.5837 11.8957 23.7715 11.8664V11.0709C23.7735 11.005 23.7745 10.9386 23.7755 10.872C23.7785 10.6731 23.7815 10.472 23.8115 10.2754C23.8996 9.72651 24.332 9.37649 24.9166 9.33671C25.5091 9.29694 26.0136 9.61514 26.1658 10.1402C26.2218 10.3311 26.2378 10.5459 26.2378 10.7527V11.8744C26.2796 11.8817 26.3175 11.889 26.3531 11.8958C26.4336 11.9114 26.502 11.9245 26.5742 11.93C27.6552 12.0255 28.7363 12.1766 29.7452 12.5744Z" fill="#EC6823"/>
<mask id="mask0_6353_65319" style="mask-type:alpha" maskUnits="userSpaceOnUse" x="10" y="9" width="30" height="31">
<path fill-rule="evenodd" clip-rule="evenodd" d="M29.7353 12.5807C35.1698 14.7327 38.368 18.5904 39.4341 24.0501L39.426 24.0421C39.4955 24.3928 39.5436 24.7506 39.5917 25.1084C39.6157 25.2873 39.6398 25.4662 39.6665 25.6442V26.234C39.6425 26.2499 39.6184 26.2739 39.6104 26.2978C39.2577 27.2622 38.2718 27.5013 37.5264 26.7999C35.5385 24.9189 32.4445 24.9029 30.4487 26.76C29.9357 27.2383 29.1421 27.2622 28.6051 26.8079C28.2203 26.497 27.8116 26.2021 27.3867 25.963C27.1405 25.8239 26.8747 25.7275 26.592 25.625C26.5583 25.6128 26.5243 25.6004 26.4901 25.5879V35.0971C26.4901 35.6045 26.9054 36.0281 27.4348 36.0281C27.9658 36.0281 28.3796 35.6029 28.3796 35.0971C28.3796 34.2687 29.0511 33.5971 29.8796 33.5971C30.708 33.5971 31.3796 34.2687 31.3796 35.0971C31.3796 37.2693 29.6131 39.0281 27.4348 39.0281C25.271 39.0281 23.4901 37.2837 23.4901 35.0971V25.464C22.7094 25.6854 22.0159 26.0654 21.4232 26.6246C20.7419 27.2622 20.1648 27.2542 19.4914 26.6246C19.4193 26.5528 19.3472 26.4891 19.267 26.4253C17.2631 24.7914 14.3455 24.895 12.4538 26.6644C11.9488 27.1426 11.5 27.2144 10.8828 26.9115C10.466 26.7122 10.2576 26.242 10.3137 25.6442C10.327 25.5167 10.3386 25.3891 10.3502 25.2616C10.3734 25.0066 10.3965 24.7515 10.4339 24.4965C10.8908 21.388 12.1573 18.6541 14.3455 16.3746C16.5898 14.0313 19.3311 12.5887 22.5454 12.0546C22.7619 12.0202 22.9784 11.9881 23.1962 11.9557C23.3816 11.9283 23.5678 11.9006 23.7557 11.8713V11.0743C23.7577 11.0083 23.7587 10.9418 23.7597 10.875C23.7627 10.6757 23.7658 10.4743 23.7958 10.2772C23.884 9.72727 24.3168 9.37657 24.9019 9.33672C25.4951 9.29687 26 9.61569 26.1523 10.1417C26.2085 10.333 26.2245 10.5482 26.2245 10.7555V11.8793C26.2663 11.8866 26.3043 11.8939 26.3399 11.9008C26.4205 11.9164 26.4889 11.9295 26.5611 11.9351C27.6432 12.0307 28.7253 12.1822 29.7353 12.5807Z" fill="#EC6823"/>
</mask>
<g mask="url(#mask0_6353_65319)">
<ellipse opacity="0.15" cx="31.665" cy="9.59899" rx="12.2905" ry="12.2213" fill="white"/>
</g>
</svg>
