<svg width="48" height="48" fill="none" xmlns="http://www.w3.org/2000/svg"><g clip-path="url(#a)"><rect width="48" height="48" rx="24" fill="#E5EFFF" fill-opacity=".43"/><path d="M32.679 16.71c-.953.34-3.033 1.439-3.735 1.905l-.267.169c-.09.056-.173.121-.259.182l-.516.37c-.328.265-.67.52-.981.806a18.21 18.21 0 0 0-1.803 1.81c-.14.161-.275.328-.413.493-.134.17-.266.338-.397.51l-.002.002a.374.374 0 0 1-.479.108l-2.408-1.284a.368.368 0 0 0-.436.583l2.867 2.922.368.373c.242.247.654.18.808-.13l.297-.599c.008-.027.03-.07.046-.112a2.12 2.12 0 0 1 .056-.126c.038-.085.078-.17.121-.256.082-.172.174-.343.264-.514.091-.17.188-.34.286-.51.102-.167.2-.336.305-.501.417-.664.887-1.3 1.399-1.9.248-.31.528-.59.796-.882l.428-.414c.073-.069.142-.14.217-.204l.226-.194c.543-.493 1.827-1.427 2.92-2.09a.605.605 0 0 0 .292-.517z" fill="#35A9FF"/><path d="M30.816 19.642c-.077.059-.372.332-.718.663-.771.73-1.176 1.752-1.201 2.815a3.8 3.8 0 0 1-.015.265c-.173 2.097-1.859 3.808-3.954 4.006a4.396 4.396 0 0 1-4.799-4.825 4.408 4.408 0 0 1 3.943-3.924 4.385 4.385 0 0 1 1.1.031c.922.142 1.86-.102 2.63-.624a22.349 22.349 0 0 1 1.945-1.17l-2.026-5.232a1.009 1.009 0 0 0-.942-.647h-4.553a1.01 1.01 0 0 0-.942.645l-9.263 23.927a.315.315 0 0 0 .295.428h4.07c.48 0 .884-.13 1.21-.386.325-.257.551-.545.676-.867l1.337-3.945a.607.607 0 0 1 .574-.412h8.637c.26 0 .49.165.574.412l1.337 3.945c.16.365.394.666.703.9.31.234.715.35 1.218.35h4.035a.315.315 0 0 0 .295-.427l-6.166-15.928z" fill="#35A9FF"/><circle opacity=".15" cx="33.714" cy="15.427" r="13.143" fill="#fff"/></g><defs><clipPath id="a"><rect width="48" height="48" rx="24" fill="#fff"/></clipPath></defs></svg>