<svg width="74" height="73" viewBox="0 0 74 73" fill="none" xmlns="http://www.w3.org/2000/svg">
<circle cx="37" cy="36.5" r="36.5" fill="white"/>
<rect width="48" height="48" transform="translate(13 12)" fill="white"/>
<path d="M50.0833 25.135C48.5596 25.6796 45.2317 27.4372 44.109 28.1823L43.6813 28.4529C43.5377 28.5431 43.404 28.6467 43.267 28.7436L42.4417 29.335C41.9171 29.7594 41.3692 30.167 40.8713 30.6248C39.8489 31.5169 38.8832 32.4859 37.9878 33.5217C37.7639 33.7789 37.5467 34.0463 37.3262 34.3102C37.1123 34.5809 36.9018 34.8515 36.6913 35.1255L36.688 35.1288C36.5109 35.3694 36.1868 35.4429 35.9228 35.3026L32.0703 33.2477C31.813 33.1107 31.4956 33.1809 31.3219 33.4147C31.1481 33.6486 31.1682 33.9727 31.372 34.1799L35.9596 38.8544L36.5476 39.4525C36.9352 39.8467 37.5935 39.7398 37.8407 39.2453L38.3152 38.2864C38.3286 38.2429 38.362 38.1728 38.3887 38.1059C38.4154 38.0424 38.4455 37.9723 38.4789 37.9055C38.5391 37.7685 38.6026 37.6315 38.6727 37.4945C38.803 37.2205 38.95 36.9465 39.0937 36.6725C39.2407 36.4019 39.3944 36.1279 39.5515 35.8572C39.7152 35.5899 39.8722 35.3193 40.0393 35.0553C40.7076 33.9928 41.4594 32.977 42.278 32.0147C42.6756 31.5202 43.1233 31.0725 43.551 30.6047L44.236 29.9431C44.3529 29.8329 44.4632 29.7193 44.5835 29.6157L44.9443 29.305C45.8131 28.5164 47.868 27.0228 49.6155 25.9637C49.9062 25.7899 50.0833 25.4725 50.0833 25.135Z" fill="#35A9FF"/>
<path d="M47.1024 29.8263C46.9788 29.9198 46.5077 30.3576 45.953 30.8855C44.7201 32.0549 44.0719 33.6888 44.0318 35.3896C44.0284 35.5299 44.0218 35.6736 44.0084 35.8139C43.7311 39.1686 41.0346 41.9051 37.6833 42.2225C33.2494 42.6402 29.5639 38.9414 30.005 34.5041C30.3324 31.2029 33.0088 28.5399 36.3134 28.2258C36.9181 28.169 37.5062 28.1857 38.0742 28.2759C39.5477 28.5031 41.048 28.1122 42.2809 27.2769C43.5406 26.4249 44.9941 25.6029 45.3917 25.4058L42.1506 17.0358C41.91 16.411 41.312 16 40.6437 16H33.3596C32.6914 16 32.0933 16.411 31.8527 17.0325L17.034 55.3104C16.9071 55.6412 17.151 55.9953 17.5052 55.9953H24.0174C24.7859 55.9953 25.4307 55.7882 25.952 55.3772C26.4732 54.9662 26.8341 54.5051 27.0346 53.9906L29.173 47.6788C29.3066 47.2846 29.6775 47.0206 30.0919 47.0206H43.9081C44.3258 47.0206 44.6934 47.2846 44.827 47.6788L46.9654 53.9906C47.2227 54.5753 47.5969 55.0564 48.0915 55.4307C48.586 55.8049 49.2342 55.992 50.0394 55.992H56.4948C56.849 55.992 57.0929 55.6378 56.966 55.307L47.1024 29.8263Z" fill="#35A9FF"/>
<mask id="mask0_5770_56148" style="mask-type:alpha" maskUnits="userSpaceOnUse" x="17" y="16" width="40" height="40">
<path d="M50.0833 25.135C48.5596 25.6796 45.2317 27.4372 44.109 28.1823L43.6813 28.4529C43.5377 28.5431 43.404 28.6467 43.267 28.7436L42.4417 29.335C41.9171 29.7594 41.3692 30.167 40.8713 30.6248C39.8489 31.5169 38.8832 32.4859 37.9878 33.5217C37.7639 33.7789 37.5467 34.0463 37.3262 34.3102C37.1123 34.5809 36.9018 34.8515 36.6913 35.1255L36.688 35.1288C36.5109 35.3694 36.1868 35.4429 35.9228 35.3026L32.0703 33.2477C31.813 33.1107 31.4956 33.1809 31.3219 33.4147C31.1481 33.6486 31.1682 33.9727 31.372 34.1799L35.9596 38.8544L36.5476 39.4525C36.9352 39.8467 37.5935 39.7398 37.8407 39.2453L38.3152 38.2864C38.3286 38.2429 38.362 38.1728 38.3887 38.1059C38.4154 38.0424 38.4455 37.9723 38.4789 37.9055C38.5391 37.7685 38.6026 37.6315 38.6727 37.4945C38.803 37.2205 38.95 36.9465 39.0937 36.6725C39.2407 36.4019 39.3944 36.1279 39.5515 35.8572C39.7152 35.5899 39.8722 35.3193 40.0393 35.0553C40.7076 33.9928 41.4594 32.977 42.278 32.0147C42.6756 31.5202 43.1233 31.0725 43.551 30.6047L44.236 29.9431C44.3529 29.8329 44.4632 29.7193 44.5835 29.6157L44.9443 29.305C45.8131 28.5164 47.868 27.0228 49.6155 25.9637C49.9062 25.7899 50.0833 25.4725 50.0833 25.135Z" fill="#35A9FF"/>
<path d="M47.1024 29.8263C46.9788 29.9198 46.5077 30.3576 45.953 30.8855C44.7201 32.0549 44.0719 33.6888 44.0318 35.3896C44.0284 35.5299 44.0218 35.6736 44.0084 35.8139C43.7311 39.1686 41.0346 41.9051 37.6833 42.2225C33.2494 42.6402 29.5639 38.9414 30.005 34.5041C30.3324 31.2029 33.0088 28.5399 36.3134 28.2258C36.9181 28.169 37.5062 28.1857 38.0742 28.2759C39.5477 28.5031 41.048 28.1122 42.2809 27.2769C43.5406 26.4249 44.9941 25.6029 45.3917 25.4058L42.1506 17.0358C41.91 16.411 41.312 16 40.6437 16H33.3596C32.6914 16 32.0933 16.411 31.8527 17.0325L17.034 55.3104C16.9071 55.6412 17.151 55.9953 17.5052 55.9953H24.0174C24.7859 55.9953 25.4307 55.7882 25.952 55.3772C26.4732 54.9662 26.8341 54.5051 27.0346 53.9906L29.173 47.6788C29.3066 47.2846 29.6775 47.0206 30.0919 47.0206H43.9081C44.3258 47.0206 44.6934 47.2846 44.827 47.6788L46.9654 53.9906C47.2227 54.5753 47.5969 55.0564 48.0915 55.4307C48.586 55.8049 49.2342 55.992 50.0394 55.992H56.4948C56.849 55.992 57.0929 55.6378 56.966 55.307L47.1024 29.8263Z" fill="#35A9FF"/>
</mask>
<g mask="url(#mask0_5770_56148)">
<ellipse opacity="0.15" cx="51.739" cy="23.0813" rx="21.0262" ry="21.0261" fill="white"/>
</g>
</svg>
