<svg width="74" height="73" viewBox="0 0 74 73" fill="none" xmlns="http://www.w3.org/2000/svg">
<circle cx="37" cy="36.5" r="36.5" fill="white"/>
<rect width="48" height="48" transform="translate(13.5 12)" fill="white"/>
<path fill-rule="evenodd" clip-rule="evenodd" d="M51.2455 19.2531V20.5008H53.7453C55.816 20.5008 57.4948 22.177 57.4948 24.2444V51.6981C57.4948 53.7658 55.816 55.4417 53.7453 55.4417H21.2495C19.1788 55.4417 17.5 53.7658 17.5 51.6981V24.2444C17.5 22.177 19.1788 20.5008 21.2495 20.5008H23.7493V19.2531C23.7493 18.5637 24.3087 18.0051 24.9989 18.0051C25.6892 18.0051 26.2489 18.5637 26.2489 19.2531V20.5008H48.7457V19.2531C48.7457 18.5637 49.3051 18.0051 49.9956 18.0051C50.6858 18.0051 51.2452 18.5637 51.2452 19.2531H51.2455ZM51.2455 26.7404C51.2455 26.0512 50.6861 25.4924 49.9959 25.4924H24.9989C24.3087 25.4924 23.7493 26.0513 23.7493 26.7404C23.7493 27.4296 24.3087 27.9881 24.9989 27.9881H49.9959C50.6861 27.9881 51.2455 27.4295 51.2455 26.7404ZM37.9771 35.3869C39.5947 33.7718 42.2174 33.7718 43.8348 35.3869C45.4524 37.002 45.4524 39.6207 43.8348 41.2358L37.4974 47.5634L31.16 41.2358C29.5424 39.6207 29.5424 37.002 31.16 35.3869C32.7774 33.7718 35.4001 33.7718 37.0177 35.3869L37.4974 35.8661L37.9771 35.3869Z" fill="#DB0351"/>
<mask id="mask0_5770_56113" style="mask-type:alpha" maskUnits="userSpaceOnUse" x="17" y="18" width="41" height="38">
<path fill-rule="evenodd" clip-rule="evenodd" d="M51.2504 19.248V20.4957H53.7502C55.8209 20.4957 57.4997 22.1719 57.4997 24.2393V51.6929C57.4997 53.7606 55.8209 55.4366 53.7502 55.4366H21.2544C19.1837 55.4366 17.5049 53.7606 17.5049 51.6929V24.2393C17.5049 22.1719 19.1837 20.4957 21.2544 20.4957H23.7542V19.248C23.7542 18.5586 24.3136 18 25.0038 18C25.6941 18 26.2537 18.5586 26.2537 19.248V20.4957H48.7506V19.248C48.7506 18.5586 49.31 18 50.0005 18C50.6907 18 51.2501 18.5586 51.2501 19.248H51.2504ZM51.2504 26.7353C51.2504 26.0461 50.6909 25.4873 50.0007 25.4873H25.0038C24.3136 25.4873 23.7542 26.0461 23.7542 26.7353C23.7542 27.4244 24.3136 27.983 25.0038 27.983H50.0007C50.691 27.983 51.2504 27.4244 51.2504 26.7353ZM37.9819 35.3817C39.5996 33.7666 42.2223 33.7666 43.8397 35.3817C45.4573 36.9969 45.4573 39.6155 43.8397 41.2307L37.5023 47.5582L31.1649 41.2307C29.5472 39.6155 29.5472 36.9969 31.1649 35.3817C32.7822 33.7666 35.405 33.7666 37.0226 35.3817L37.5023 35.8609L37.9819 35.3817Z" fill="#DB0351"/>
</mask>
<g mask="url(#mask0_5770_56113)">
<ellipse opacity="0.25" cx="47.0648" cy="53.2147" rx="19.9974" ry="19.9974" fill="white"/>
</g>
</svg>
