<svg width="48" height="48" fill="none" xmlns="http://www.w3.org/2000/svg"><g clip-path="url(#a)"><rect width="48" height="48" rx="24" fill="#E5EFFF" fill-opacity=".43"/><path d="m12.745 16.824-2.4 14.99a5.108 5.108 0 0 0 1.175 4.112 5.173 5.173 0 0 0 3.913 1.786h17.135a5.174 5.174 0 0 0 3.913-1.786 5.107 5.107 0 0 0 1.174-4.112l-2.4-14.99c-.236-1.5-1.513-2.581-3.047-2.581h-2.122c-.494-2.888-3.027-5.102-6.085-5.102-3.059 0-5.592 2.214-6.087 5.102h-2.12c-1.535 0-2.812 1.081-3.049 2.581zM24 11.181a4.112 4.112 0 0 1 3.975 3.062h-7.95A4.112 4.112 0 0 1 24 11.18zm-5.148 7.143c.566 0 1.03.45 1.03 1.02 0 2.246 1.842 4.082 4.118 4.082 2.276 0 4.12-1.836 4.12-4.081 0-.572.463-1.02 1.029-1.02.566 0 1.03.448 1.03 1.02 0 3.377-2.77 6.122-6.179 6.122-3.408 0-6.178-2.745-6.178-6.122 0-.572.463-1.02 1.03-1.02z" fill="#4CB9C1"/><circle opacity=".15" cx="16.572" cy="15.427" r="13.143" fill="#fff"/></g><defs><clipPath id="a"><rect width="48" height="48" rx="24" fill="#fff"/></clipPath></defs></svg>