<svg width="74" height="73" fill="none" xmlns="http://www.w3.org/2000/svg"><path d="M73.5 36.5C73.5 56.658 57.158 73 37 73S.5 56.658.5 36.5 16.842 0 37 0s36.5 16.342 36.5 36.5z" fill="#fff"/><path fill-rule="evenodd" clip-rule="evenodd" d="M45.304 16.005c9.5 3.759 15.092 10.497 16.956 20.033l-.014-.014c.121.612.206 1.237.29 1.862.042.313.084.625.13.936v1.03a.249.249 0 0 0-.098.111c-.616 1.685-2.34 2.102-3.643.877-3.476-3.285-8.885-3.313-12.374-.07a2.432 2.432 0 0 1-3.223.084c-.673-.542-1.388-1.058-2.13-1.475-.431-.243-.896-.412-1.39-.59-.213-.078-.432-.157-.656-.245v-.126h-.042v16.914c0 1.195.974 2.158 2.172 2.158a2.164 2.164 0 0 0 2.172-2.158c0-1.153.94-2.088 2.102-2.088 1.16 0 2.102.935 2.102 2.088 0 3.488-2.843 6.335-6.376 6.335-3.511 0-6.376-2.824-6.376-6.335V38.418h-.07c-.127.028-.183.028-.225.028-1.457.376-2.746 1.058-3.84 2.088-1.19 1.114-2.2 1.1-3.377 0a4.642 4.642 0 0 0-.392-.348c-3.503-2.854-8.604-2.673-11.912.418-.883.835-1.667.96-2.746.431-.729-.348-1.093-1.169-.995-2.213.023-.223.043-.446.064-.668.04-.446.08-.891.146-1.337.799-5.429 3.013-10.204 6.839-14.186 3.923-4.092 8.716-6.612 14.335-7.545.379-.06.758-.116 1.138-.172.324-.048.65-.097.978-.148v-1.392c.004-.115.006-.232.008-.348.005-.348.01-.7.063-1.044.154-.96.91-1.573 1.933-1.643 1.037-.07 1.92.487 2.186 1.406.099.334.127.71.127 1.072v1.963l.201.038c.141.027.26.05.387.06 1.892.166 3.784.431 5.55 1.127z" fill="#EC6823"/><mask id="a" style="mask-type:alpha" maskUnits="userSpaceOnUse" x="11" y="10" width="52" height="52"><path fill-rule="evenodd" clip-rule="evenodd" d="M45.287 16.016c9.51 3.766 15.107 10.517 16.973 20.072l-.014-.014c.121.613.205 1.24.29 1.866.041.313.084.626.13.937v1.032a.248.248 0 0 0-.098.112c-.617 1.688-2.342 2.106-3.647.879-3.479-3.292-8.893-3.32-12.386-.07a2.433 2.433 0 0 1-3.226.084c-.673-.544-1.389-1.06-2.132-1.479-.431-.243-.896-.412-1.39-.591-.215-.078-.434-.157-.658-.246v-.125h-.646V55.42a2.765 2.765 0 0 0 2.778 2.754 2.765 2.765 0 0 0 2.778-2.754 1.5 1.5 0 0 1 3 0c0 3.176-2.584 5.754-5.778 5.754-3.174 0-5.778-2.557-5.778-5.754V38.473h-.674c-.127.028-.183.028-.225.028-1.459.376-2.75 1.06-3.843 2.092-1.193 1.116-2.203 1.102-3.381 0a4.673 4.673 0 0 0-.393-.349c-3.506-2.86-8.612-2.678-11.923.419-.883.837-1.669.962-2.75.432-.729-.349-1.093-1.172-.995-2.218.023-.223.044-.446.064-.67.04-.446.08-.892.146-1.338.8-5.44 3.016-10.224 6.846-14.214 3.927-4.1 8.724-6.625 14.35-7.56.378-.06.757-.116 1.139-.173.324-.048.65-.096.978-.147V13.38c.004-.116.006-.232.008-.349.005-.349.01-.701.063-1.046.154-.962.911-1.576 1.935-1.646 1.038-.07 1.922.488 2.189 1.409.098.335.126.711.126 1.074v1.967c.073.012.14.025.202.037.14.027.26.05.387.06 1.894.168 3.787.433 5.555 1.13z" fill="#EC6823"/></mask><g mask="url(#a)"><ellipse opacity=".15" cx="48.665" cy="10.798" rx="21.508" ry="21.387" fill="#fff"/></g></svg>