<svg xmlns="http://www.w3.org/2000/svg" width="40" height="40" viewBox="0 0 40 40">
    <g fill="none" fill-rule="evenodd">
        <path fill="#FFF" d="M0 19.856C0 8.89 8.835 0 19.734 0c10.9 0 19.735 8.89 19.735 19.856 0 10.966-8.836 19.856-19.735 19.856S0 30.822 0 19.856z"/>
        <path fill="#3570D2" d="M22.877 20.143A3.149 3.149 0 0 0 19.734 17a3.149 3.149 0 0 0-3.142 3.143 3.149 3.149 0 0 0 3.142 3.143 3.149 3.149 0 0 0 3.143-3.143zm1.694 0a4.83 4.83 0 0 1-4.837 4.837 4.83 4.83 0 0 1-4.837-4.837 4.83 4.83 0 0 1 4.837-4.837 4.83 4.83 0 0 1 4.837 4.837zm1.326-5.034c0 .626-.503 1.13-1.13 1.13-.625 0-1.129-.504-1.129-1.13 0-.626.504-1.13 1.13-1.13.626 0 1.13.504 1.13 1.13zm-6.163-2.7c-1.375 0-4.321-.111-5.561.38-.43.172-.749.38-1.08.712-.332.332-.54.65-.712 1.08-.492 1.24-.381 4.187-.381 5.562s-.11 4.321.38 5.561c.172.43.381.75.713 1.08.331.332.65.54 1.08.713 1.24.49 4.186.38 5.561.38s4.322.11 5.562-.38c.43-.172.749-.38 1.08-.712.332-.332.54-.651.712-1.08.491-1.24.38-4.187.38-5.562s.111-4.322-.38-5.562a3.015 3.015 0 0 0-.712-1.08 3.015 3.015 0 0 0-1.08-.712c-1.24-.491-4.187-.38-5.562-.38zm9.429 7.734c0 1.301.012 2.59-.061 3.892-.074 1.51-.418 2.848-1.523 3.953s-2.443 1.448-3.953 1.522c-1.301.074-2.59.061-3.892.061-1.301 0-2.59.013-3.891-.061-1.51-.074-2.849-.417-3.954-1.522-1.104-1.105-1.448-2.443-1.522-3.953-.073-1.302-.061-2.59-.061-3.892 0-1.301-.012-2.59.061-3.892.074-1.51.418-2.848 1.522-3.953 1.105-1.105 2.444-1.449 3.954-1.522 1.301-.074 2.59-.062 3.891-.062 1.302 0 2.59-.012 3.892.062 1.51.073 2.848.417 3.953 1.522s1.449 2.443 1.523 3.953c.073 1.301.061 2.59.061 3.892z"/>
    </g>
</svg>
