<svg xmlns="http://www.w3.org/2000/svg" xmlns:xlink="http://www.w3.org/1999/xlink" width="40" height="40" viewBox="0 0 40 40">
    <defs>
        <path id="a" d="M0 0h1440v349H0z"/>
    </defs>
    <g fill="none" fill-rule="evenodd">
        <use fill="#3570D2" fill-rule="nonzero" transform="translate(-960 -100)" xlink:href="#a"/>
        <path fill="#FFF" d="M0 19.856C0 8.89 8.835 0 19.734 0c10.9 0 19.735 8.89 19.735 19.856 0 10.966-8.836 19.856-19.735 19.856S0 30.822 0 19.856z"/>
        <path fill="#3570D2" d="M13.948 17.025v13.19H9.59v-13.19h4.357zm.287-4.08c0 1.267-.946 2.28-2.466 2.28h-.027c-1.463 0-2.409-1.013-2.409-2.28 0-1.293.975-2.278 2.465-2.278 1.49 0 2.409.985 2.437 2.278zm15.425 9.708v7.563h-4.357v-7.057c0-1.773-.63-2.982-2.207-2.982-1.204 0-1.92.815-2.236 1.603-.115.282-.143.675-.143 1.07v7.366h-4.358s.058-11.953 0-13.19h4.358v1.868c.578-.898 1.614-2.178 3.927-2.178 2.867 0 5.016 1.885 5.016 5.937z"/>
    </g>
</svg>
