<svg width="161" height="18" viewBox="0 0 161 18" fill="none" xmlns="http://www.w3.org/2000/svg">
<path d="M6.48408 0L0 18H3.55199L5.2368 12.8955H10.9089L12.6184 18H16.1929L9.70961 0H6.48408ZM9.925 9.77925H6.22292L7.88672 5.169C7.95051 4.977 8.0188 4.80525 8.08634 4.57425C8.15313 4.8075 8.22068 4.95525 8.28597 5.15025L9.925 9.77925Z" fill="white"/>
<path d="M22.7101 0H19.6451V18H30.3987V14.8837H22.7101V0Z" fill="white"/>
<path d="M41.8898 0C36.8661 0 32.9307 3.90225 32.9307 8.88375C32.9307 13.9958 36.8661 18 41.8898 18C46.9 18 50.8249 13.9958 50.8249 8.88375C50.8257 3.90225 46.9007 0 41.8898 0ZM41.8898 14.886C38.7573 14.886 36.3033 12.2498 36.3033 8.88375C36.3033 5.6355 38.7573 3.09075 41.8898 3.09075C45.0095 3.09075 47.4531 5.6355 47.4531 8.88375C47.4531 12.2498 45.0095 14.886 41.8898 14.886Z" fill="white"/>
<path d="M61.7234 0H55.6678V18H61.7234C67.3557 18 70.8544 14.5455 70.8544 8.976C70.8552 3.4365 67.3557 0 61.7234 0ZM59.1628 3.11625H61.5553C65.2521 3.11625 67.3722 5.23575 67.3722 8.976C67.3722 12.7463 65.2514 14.883 61.5553 14.883H59.1628V3.11625Z" fill="white"/>
<path d="M83.5067 0C78.4831 0 74.5476 3.90225 74.5476 8.88375C74.5476 13.9958 78.4831 18 83.5067 18C88.5169 18 92.4418 13.9958 92.4418 8.88375C92.4418 3.90225 88.5169 0 83.5067 0ZM83.5067 14.886C80.3743 14.886 77.9202 12.2498 77.9202 8.88375C77.9202 5.6355 80.3743 3.09075 83.5067 3.09075C86.6264 3.09075 89.07 5.6355 89.07 8.88375C89.07 12.2498 86.6264 14.886 83.5067 14.886Z" fill="white"/>
<path d="M110.443 0H106.611L102.326 7.2H100.885V0H97.2283V18H100.885V10.263H102.322L106.847 18H110.739L105.177 8.595L110.443 0Z" fill="white"/>
<path d="M112.122 3.11625H117.767V18H121.369V3.11625H127.068V0H112.122V3.11625Z" fill="white"/>
<path d="M133.735 10.263H139.864V7.2H133.735V3.11625H141.423V0H130.617V18H141.907V14.8837H133.735V10.263Z" fill="white"/>
<path d="M155.969 10.5765C155.901 10.4557 155.838 10.3162 155.78 10.224C157.504 9.38698 158.587 7.53898 158.587 5.36773C158.587 2.97598 157.362 1.09423 155.388 0.354732C154.692 0.0967324 153.889 0.000732422 152.032 0.000732422H146.532V18.0007H149.597V11.2845H152.542L156.129 18.0007H160.001L155.969 10.5765ZM149.595 3.11623H151.959C153.188 3.11623 153.672 3.15973 154.045 3.35473C154.764 3.75448 155.129 4.54873 155.129 5.59198C155.129 7.19848 154.196 8.22073 152.634 8.22073H149.596V3.11623H149.595Z" fill="white"/>
</svg>
