<svg xmlns="http://www.w3.org/2000/svg" xmlns:xlink="http://www.w3.org/1999/xlink" width="40" height="40" viewBox="0 0 40 40">
    <defs>
        <path id="a" d="M0 0h1440v349H0z"/>
    </defs>
    <g fill="none" fill-rule="evenodd">
        <use fill="#3570D2" fill-rule="nonzero" transform="translate(-895 -100)" xlink:href="#a"/>
        <path fill="#FFF" d="M0 19.856C0 8.89 8.823 0 19.706 0s19.706 8.89 19.706 19.856c0 10.966-8.823 19.856-19.706 19.856S0 30.822 0 19.856z"/>
        <path fill="#3570D2" d="M19.116 16.14l.041.686-.69-.084c-2.508-.322-4.7-1.416-6.56-3.253l-.91-.911-.234.673c-.497 1.5-.18 3.085.854 4.15.552.59.428.673-.524.323-.33-.112-.62-.197-.647-.154-.097.098.234 1.374.496 1.878.358.702 1.089 1.389 1.888 1.795l.676.323-.8.014c-.772 0-.8.014-.717.308.276.912 1.365 1.88 2.578 2.3l.855.294-.745.449a7.716 7.716 0 0 1-3.694 1.038c-.62.014-1.13.07-1.13.112 0 .14 1.682.925 2.66 1.234 2.936.911 6.424.518 9.042-1.038 1.861-1.108 3.722-3.31 4.59-5.44.47-1.136.938-3.211.938-4.207 0-.645.041-.73.813-1.5.455-.449.882-.94.965-1.08.138-.266.124-.266-.579-.028-1.172.42-1.337.365-.758-.266.427-.45.937-1.262.937-1.5 0-.043-.207.027-.44.154-.249.14-.8.35-1.214.476l-.744.239-.676-.463c-.372-.252-.896-.533-1.171-.617-.703-.196-1.778-.168-2.412.056-1.723.631-2.812 2.258-2.688 4.038z"/>
    </g>
</svg>
