<svg xmlns="http://www.w3.org/2000/svg" width="40" height="40" viewBox="0 0 40 40">
    <g fill="none" fill-rule="evenodd">
        <path fill="#FFF" d="M0 19.856C0 8.89 8.835 0 19.734 0c10.9 0 19.735 8.89 19.735 19.856 0 10.966-8.836 19.856-19.735 19.856S0 30.822 0 19.856z"/>
        <path fill="#3570D2" d="M17.67 22.446l5.401-2.79-5.401-2.823v5.613zm2.064-9.62c4.208 0 6.998.2 6.998.2.39.045 1.25.045 2.01.849 0 0 .613.603.791 1.987.213 1.618.201 3.236.201 3.236v1.518s.012 1.618-.2 3.237c-.18 1.372-.793 1.986-.793 1.986-.759.793-1.618.793-2.009.837 0 0-2.79.212-6.998.212-5.2-.044-6.797-.2-6.797-.2-.446-.079-1.45-.056-2.21-.849 0 0-.613-.614-.792-1.986-.212-1.619-.2-3.237-.2-3.237v-1.518s-.012-1.618.2-3.236c.179-1.384.793-1.987.793-1.987.759-.804 1.618-.804 2.009-.848 0 0 2.79-.201 6.997-.201z"/>
    </g>
</svg>
