<svg width="24" height="24" viewBox="0 0 24 24" fill="none" xmlns="http://www.w3.org/2000/svg">
<path d="M13.4999 5H10.4999C10.1021 5 9.72054 4.84196 9.43924 4.56066C9.15793 4.27936 8.9999 3.89782 8.9999 3.5C8.9999 3.10218 9.15793 2.72064 9.43924 2.43934C9.72054 2.15804 10.1021 2 10.4999 2H13.4999C13.8977 2 14.2793 2.15804 14.5606 2.43934C14.8419 2.72064 14.9999 3.10218 14.9999 3.5C14.9999 3.89782 14.8419 4.27936 14.5606 4.56066C14.2793 4.84196 13.8977 5 13.4999 5ZM19.9999 5.11V19.89C20.0133 20.4347 19.8104 20.9626 19.4356 21.358C19.0608 21.7535 18.5445 21.9843 17.9999 22H5.9999C5.45525 21.9843 4.93901 21.7535 4.56418 21.358C4.18934 20.9626 3.98644 20.4347 3.9999 19.89V5.11C3.98644 4.5653 4.18934 4.03745 4.56418 3.642C4.93901 3.24655 5.45525 3.0157 5.9999 3H6.9999V4.06C6.98925 4.46451 7.05842 4.86715 7.20345 5.24491C7.34848 5.62267 7.56652 5.96816 7.84513 6.26162C8.12373 6.55508 8.45743 6.79076 8.82715 6.95521C9.19688 7.11965 9.59538 7.20963 9.9999 7.22H13.9999C14.4044 7.20963 14.8029 7.11965 15.1726 6.95521C15.5424 6.79076 15.8761 6.55508 16.1547 6.26162C16.4333 5.96816 16.6513 5.62267 16.7963 5.24491C16.9414 4.86715 17.0105 4.46451 16.9999 4.06V3H17.9999C18.5445 3.0157 19.0608 3.24655 19.4356 3.642C19.8104 4.03745 20.0133 4.5653 19.9999 5.11ZM11.9999 17C11.9999 16.7348 11.8945 16.4804 11.707 16.2929C11.5195 16.1054 11.2651 16 10.9999 16H6.9999C6.73468 16 6.48033 16.1054 6.29279 16.2929C6.10525 16.4804 5.9999 16.7348 5.9999 17C5.9999 17.2652 6.10525 17.5196 6.29279 17.7071C6.48033 17.8946 6.73468 18 6.9999 18H10.9999C11.2651 18 11.5195 17.8946 11.707 17.7071C11.8945 17.5196 11.9999 17.2652 11.9999 17ZM13.9999 13C13.9999 12.7348 13.8945 12.4804 13.707 12.2929C13.5195 12.1054 13.2651 12 12.9999 12H6.9999C6.73468 12 6.48033 12.1054 6.29279 12.2929C6.10525 12.4804 5.9999 12.7348 5.9999 13C5.9999 13.2652 6.10525 13.5196 6.29279 13.7071C6.48033 13.8946 6.73468 14 6.9999 14H12.9999C13.2651 14 13.5195 13.8946 13.707 13.7071C13.8945 13.5196 13.9999 13.2652 13.9999 13Z" fill="#D9D9D9"/>
</svg>
