<svg width="24" height="24" viewBox="0 0 24 24" fill="none" xmlns="http://www.w3.org/2000/svg">
<path fill-rule="evenodd" clip-rule="evenodd" d="M1 11.957C1 12.1432 1.06445 12.3044 1.19336 12.4404C1.32227 12.5765 1.48698 12.6445 1.6875 12.6445H11.334V19.6055C11.334 20.2214 11.4844 20.7871 11.7852 21.3027C12.0859 21.8184 12.4977 22.2301 13.0205 22.5381C13.5433 22.846 14.1126 23 14.7285 23C15.6595 23 16.458 22.667 17.124 22.001C17.79 21.335 18.123 20.5365 18.123 19.6055C18.123 19.4193 18.055 19.2581 17.9189 19.1221C17.7829 18.986 17.6217 18.918 17.4355 18.918C17.3066 18.918 17.1885 18.9466 17.0811 19.0039C16.9736 19.0612 16.8913 19.1436 16.834 19.251C16.7767 19.3584 16.748 19.4766 16.748 19.6055C16.748 20.1641 16.5511 20.6403 16.1572 21.0342C15.7633 21.4281 15.2871 21.625 14.7285 21.625C14.1699 21.625 13.6901 21.4281 13.2891 21.0342C12.888 20.6403 12.6875 20.1641 12.6875 19.6055V12.6445H22.3125C22.4414 12.6445 22.5596 12.6123 22.667 12.5479C22.7744 12.4834 22.8568 12.3975 22.9141 12.29C22.9714 12.1826 23 12.0716 23 11.957C23 10.1953 22.5882 8.65561 21.7646 7.33789C20.9411 6.02018 19.7559 4.99252 18.209 4.25488C16.6621 3.51725 14.8216 3.11263 12.6875 3.04102V1.6875C12.6875 1.60156 12.6696 1.51563 12.6338 1.42969C12.598 1.34375 12.5514 1.26856 12.4941 1.2041C12.4368 1.13965 12.3652 1.08952 12.2793 1.05371C12.1934 1.0179 12.1003 1 12 1C11.8138 1 11.6563 1.06803 11.5273 1.2041C11.3984 1.34017 11.334 1.5013 11.334 1.6875V3.04102C7.62433 3.16992 4.85287 4.25845 3.01953 6.30664C1.67317 7.82488 1 9.70832 1 11.957Z" fill="#D9D9D9"/>
</svg>
