<svg width="24" height="24" viewBox="0 0 24 24" fill="none" xmlns="http://www.w3.org/2000/svg">
<path fill-rule="evenodd" clip-rule="evenodd" d="M19.9741 10.9995H18.9871V19.9195C18.9871 20.5165 18.5041 20.9995 17.9091 20.9995H14.4951C14.2201 20.9995 13.9961 20.7755 13.9961 20.4995V15.9995C13.9961 15.4475 13.5491 14.9995 12.9981 14.9995H11.0021C10.4521 14.9995 10.0041 15.4475 10.0041 15.9995V20.4995C10.0041 20.7755 9.78113 20.9995 9.50513 20.9995H6.09213C5.49613 20.9995 5.01413 20.5165 5.01413 19.9195V10.9995H4.02713C3.04013 10.9995 2.62313 9.7395 3.41513 9.1495L11.4091 3.1965C11.7601 2.9345 12.2411 2.9345 12.5921 3.1965L20.5851 9.1495C21.3771 9.7395 20.9601 10.9995 19.9741 10.9995Z" fill="#3570D2"/>
</svg>
