<svg width="74" height="73" viewBox="0 0 74 73" fill="none" xmlns="http://www.w3.org/2000/svg">
<circle cx="37" cy="36.5" r="36.5" fill="white"/>
<rect width="48" height="48" transform="translate(13.5 12)" fill="white"/>
<path d="M20.2872 25.8331L16.5921 48.9169C16.2434 51.1959 16.8933 53.4899 18.3998 55.25C19.9063 56.9944 22.1105 58 24.4259 58H50.8138C53.1292 58 55.3334 56.9944 56.8399 55.25C58.3464 53.4898 58.9967 51.1959 58.6476 48.9169L54.9529 25.8331C54.5883 23.5229 52.6219 21.8572 50.2588 21.8572H46.9919C46.2309 17.4102 42.3297 14 37.6202 14C32.9107 14 29.0094 17.4102 28.2476 21.8572H24.9811C22.618 21.8572 20.6517 23.523 20.287 25.8331H20.2872ZM37.6197 17.1429C40.5694 17.1429 43.0274 19.1545 43.741 21.8572H31.4985C32.2118 19.1545 34.6698 17.1429 37.6195 17.1429H37.6197ZM29.6906 28.1429C30.5628 28.1429 31.2764 28.8342 31.2764 29.7143C31.2764 33.1715 34.1149 36 37.6197 36C41.1244 36 43.9629 33.1715 43.9629 29.7143C43.9629 28.8342 44.6765 28.1429 45.5487 28.1429C46.4209 28.1429 47.1346 28.8342 47.1346 29.7143C47.1346 34.9158 42.8688 39.1429 37.6197 39.1429C32.3706 39.1429 28.1048 34.9158 28.1048 29.7143C28.1048 28.8342 28.8184 28.1429 29.6906 28.1429Z" fill="#4CB9C1"/>
<mask id="mask0_5770_56123" style="mask-type:alpha" maskUnits="userSpaceOnUse" x="16" y="14" width="43" height="44">
<path d="M20.2872 25.8331L16.5921 48.9169C16.2434 51.1959 16.8933 53.4899 18.3998 55.25C19.9063 56.9944 22.1105 58 24.4259 58H50.8138C53.1292 58 55.3334 56.9944 56.8399 55.25C58.3464 53.4898 58.9967 51.1959 58.6476 48.9169L54.9529 25.8331C54.5883 23.5229 52.6219 21.8572 50.2588 21.8572H46.9919C46.2309 17.4102 42.3297 14 37.6202 14C32.9107 14 29.0094 17.4102 28.2476 21.8572H24.9811C22.618 21.8572 20.6517 23.523 20.287 25.8331H20.2872ZM37.6197 17.1429C40.5694 17.1429 43.0274 19.1545 43.741 21.8572H31.4985C32.2118 19.1545 34.6698 17.1429 37.6195 17.1429H37.6197ZM29.6906 28.1429C30.5628 28.1429 31.2764 28.8342 31.2764 29.7143C31.2764 33.1715 34.1149 36 37.6197 36C41.1244 36 43.9629 33.1715 43.9629 29.7143C43.9629 28.8342 44.6765 28.1429 45.5487 28.1429C46.4209 28.1429 47.1346 28.8342 47.1346 29.7143C47.1346 34.9158 42.8688 39.1429 37.6197 39.1429C32.3706 39.1429 28.1048 34.9158 28.1048 29.7143C28.1048 28.8342 28.8184 28.1429 29.6906 28.1429Z" fill="#4CB9C1"/>
</mask>
<g mask="url(#mask0_5770_56123)">
<ellipse opacity="0.15" cx="26.1804" cy="23.6799" rx="20.2399" ry="20.24" fill="white"/>
</g>
</svg>
