<svg width="28" height="24" viewBox="0 0 28 24" fill="none" xmlns="http://www.w3.org/2000/svg">
<path fill-rule="evenodd" clip-rule="evenodd" d="M5.11035 2.45508H25.8552C26.6331 2.45508 27.229 3.14682 27.1139 3.91618L25.2726 16.2192C25.1794 16.8424 24.6441 17.3036 24.0139 17.3036H10.5024C9.94002 17.3036 9.44433 16.9345 9.28308 16.3958L5.11035 2.45508Z" fill="white"/>
<path fill-rule="evenodd" clip-rule="evenodd" d="M0.666016 1.39459C0.666016 0.808834 1.14087 0.333984 1.72662 0.333984H6.05996C6.76286 0.333984 7.33268 0.903804 7.33268 1.60671V2.4552H1.72662C1.14086 2.4552 0.666016 1.98035 0.666016 1.39459Z" fill="white"/>
<path fill-rule="evenodd" clip-rule="evenodd" d="M10.6666 23.6682C11.8939 23.6682 12.8888 22.7185 12.8888 21.547C12.8888 20.3755 11.8939 19.4258 10.6666 19.4258C9.43926 19.4258 8.44434 20.3755 8.44434 21.547C8.44434 22.7185 9.43926 23.6682 10.6666 23.6682Z" fill="white"/>
<path fill-rule="evenodd" clip-rule="evenodd" d="M21.7779 23.6682C23.0052 23.6682 24.0001 22.7185 24.0001 21.547C24.0001 20.3755 23.0052 19.4258 21.7779 19.4258C20.5506 19.4258 19.5557 20.3755 19.5557 21.547C19.5557 22.7185 20.5506 23.6682 21.7779 23.6682Z" fill="white"/>
</svg>
